<svg width="1920" height="1080" viewBox="0 0 1920 1080" fill="none" xmlns="http://www.w3.org/2000/svg">
<g clip-path="url(#clip0_233_198)">
<rect width="1920" height="1080" fill="white"/>
<rect width="1920" height="1080" fill="url(#paint0_linear_233_198)"/>
<rect x="61" y="25" width="4" height="22" fill="url(#paint1_linear_233_198)"/>
<rect width="1920" height="80" fill="#0A141F" fill-opacity="0.8"/>
<path d="M1675.89 45H1674.41L1678.68 33.3636H1680.14L1684.41 45H1682.93L1679.45 35.2045H1679.36L1675.89 45ZM1676.43 40.4545H1682.39V41.7045H1676.43V40.4545ZM1686.22 45V33.3636H1687.56V37.6591H1687.68C1687.77 37.5076 1687.91 37.3144 1688.09 37.0795C1688.26 36.8409 1688.52 36.6288 1688.85 36.4432C1689.18 36.2538 1689.63 36.1591 1690.2 36.1591C1690.93 36.1591 1691.58 36.3428 1692.14 36.7102C1692.7 37.0777 1693.14 37.5985 1693.45 38.2727C1693.77 38.947 1693.93 39.7424 1693.93 40.6591C1693.93 41.5833 1693.77 42.3845 1693.45 43.0625C1693.14 43.7367 1692.7 44.2595 1692.15 44.6307C1691.59 44.9981 1690.95 45.1818 1690.22 45.1818C1689.66 45.1818 1689.21 45.089 1688.88 44.9034C1688.54 44.714 1688.28 44.5 1688.1 44.2614C1687.91 44.0189 1687.77 43.8182 1687.68 43.6591H1687.52V45H1686.22ZM1687.54 40.6364C1687.54 41.2955 1687.64 41.8769 1687.83 42.3807C1688.02 42.8807 1688.3 43.2727 1688.68 43.5568C1689.05 43.8371 1689.5 43.9773 1690.04 43.9773C1690.6 43.9773 1691.07 43.8295 1691.44 43.5341C1691.82 43.2348 1692.11 42.8333 1692.3 42.3295C1692.49 41.822 1692.59 41.2576 1692.59 40.6364C1692.59 40.0227 1692.49 39.4697 1692.3 38.9773C1692.12 38.4811 1691.83 38.089 1691.45 37.8011C1691.08 37.5095 1690.61 37.3636 1690.04 37.3636C1689.49 37.3636 1689.04 37.5019 1688.66 37.7784C1688.29 38.0511 1688.01 38.4337 1687.82 38.9261C1687.63 39.4148 1687.54 39.9848 1687.54 40.6364ZM1699.52 45.1818C1698.73 45.1818 1698.04 44.9943 1697.45 44.6193C1696.86 44.2443 1696.4 43.7197 1696.06 43.0455C1695.73 42.3712 1695.57 41.5833 1695.57 40.6818C1695.57 39.7727 1695.73 38.9792 1696.06 38.3011C1696.4 37.6231 1696.86 37.0966 1697.45 36.7216C1698.04 36.3466 1698.73 36.1591 1699.52 36.1591C1700.31 36.1591 1701 36.3466 1701.59 36.7216C1702.19 37.0966 1702.65 37.6231 1702.98 38.3011C1703.31 38.9792 1703.48 39.7727 1703.48 40.6818C1703.48 41.5833 1703.31 42.3712 1702.98 43.0455C1702.65 43.7197 1702.19 44.2443 1701.59 44.6193C1701 44.9943 1700.31 45.1818 1699.52 45.1818ZM1699.52 43.9773C1700.12 43.9773 1700.61 43.8239 1701 43.517C1701.39 43.2102 1701.67 42.8068 1701.86 42.3068C1702.04 41.8068 1702.14 41.2652 1702.14 40.6818C1702.14 40.0985 1702.04 39.5549 1701.86 39.0511C1701.67 38.5473 1701.39 38.1402 1701 37.8295C1700.61 37.5189 1700.12 37.3636 1699.52 37.3636C1698.92 37.3636 1698.43 37.5189 1698.05 37.8295C1697.66 38.1402 1697.37 38.5473 1697.19 39.0511C1697 39.5549 1696.91 40.0985 1696.91 40.6818C1696.91 41.2652 1697 41.8068 1697.19 42.3068C1697.37 42.8068 1697.66 43.2102 1698.05 43.517C1698.43 43.8239 1698.92 43.9773 1699.52 43.9773ZM1711.02 41.4318V36.2727H1712.37V45H1711.02V43.5227H1710.93C1710.73 43.9659 1710.41 44.3428 1709.98 44.6534C1709.55 44.9602 1709 45.1136 1708.34 45.1136C1707.8 45.1136 1707.31 44.9943 1706.89 44.7557C1706.46 44.5133 1706.13 44.1496 1705.89 43.6648C1705.65 43.1761 1705.52 42.5606 1705.52 41.8182V36.2727H1706.87V41.7273C1706.87 42.3636 1707.04 42.8712 1707.4 43.25C1707.76 43.6288 1708.22 43.8182 1708.77 43.8182C1709.11 43.8182 1709.45 43.733 1709.79 43.5625C1710.14 43.392 1710.43 43.1307 1710.67 42.7784C1710.9 42.4261 1711.02 41.9773 1711.02 41.4318ZM1718.62 36.2727V37.4091H1714.09V36.2727H1718.62ZM1715.41 34.1818H1716.75V42.5C1716.75 42.8788 1716.81 43.1629 1716.92 43.3523C1717.03 43.5379 1717.18 43.6629 1717.35 43.7273C1717.53 43.7879 1717.71 43.8182 1717.91 43.8182C1718.06 43.8182 1718.18 43.8106 1718.28 43.7955C1718.37 43.7765 1718.45 43.7614 1718.5 43.75L1718.78 44.9545C1718.68 44.9886 1718.56 45.0227 1718.39 45.0568C1718.23 45.0947 1718.03 45.1136 1717.78 45.1136C1717.4 45.1136 1717.03 45.0322 1716.66 44.8693C1716.3 44.7064 1716 44.4583 1715.76 44.125C1715.53 43.7917 1715.41 43.3712 1715.41 42.8636V34.1818Z" fill="white"/>
<g clip-path="url(#clip1_233_198)">
<path d="M1603 43.2082C1603.89 43.2082 1604.64 42.895 1605.27 42.2686C1605.89 41.6422 1606.21 40.8859 1606.21 39.9998C1606.21 39.1137 1605.89 38.3575 1605.27 37.7311C1604.64 37.1047 1603.89 36.7915 1603 36.7915C1602.11 36.7915 1601.36 37.1047 1600.73 37.7311C1600.1 38.3575 1599.79 39.1137 1599.79 39.9998C1599.79 40.8859 1600.1 41.6422 1600.73 42.2686C1601.36 42.895 1602.11 43.2082 1603 43.2082ZM1603 44.5832C1601.73 44.5832 1600.65 44.1363 1599.76 43.2425C1598.86 42.3488 1598.42 41.2679 1598.42 39.9998C1598.42 38.7318 1598.86 37.6509 1599.76 36.7571C1600.65 35.8634 1601.73 35.4165 1603 35.4165C1604.27 35.4165 1605.35 35.8634 1606.24 36.7571C1607.14 37.6509 1607.58 38.7318 1607.58 39.9998C1607.58 41.2679 1607.14 42.3488 1606.24 43.2425C1605.35 44.1363 1604.27 44.5832 1603 44.5832ZM1593.6 40.6873C1593.41 40.6873 1593.24 40.6224 1593.11 40.4925C1592.98 40.3627 1592.92 40.1984 1592.92 39.9998C1592.92 39.8012 1592.98 39.637 1593.11 39.5071C1593.24 39.3773 1593.41 39.3123 1593.6 39.3123H1595.9C1596.09 39.3123 1596.26 39.3773 1596.39 39.5071C1596.52 39.637 1596.58 39.8012 1596.58 39.9998C1596.58 40.1984 1596.52 40.3627 1596.39 40.4925C1596.26 40.6224 1596.09 40.6873 1595.9 40.6873H1593.6ZM1610.1 40.6873C1609.91 40.6873 1609.74 40.6224 1609.61 40.4925C1609.48 40.3627 1609.42 40.1984 1609.42 39.9998C1609.42 39.8012 1609.48 39.637 1609.61 39.5071C1609.74 39.3773 1609.91 39.3123 1610.1 39.3123H1612.4C1612.59 39.3123 1612.76 39.3773 1612.89 39.5071C1613.02 39.637 1613.08 39.8012 1613.08 39.9998C1613.08 40.1984 1613.02 40.3627 1612.89 40.4925C1612.76 40.6224 1612.59 40.6873 1612.4 40.6873H1610.1ZM1603 33.5832C1602.8 33.5832 1602.64 33.5182 1602.51 33.3884C1602.38 33.2585 1602.31 33.0943 1602.31 32.8957V30.604C1602.31 30.4054 1602.38 30.2412 1602.51 30.1113C1602.64 29.9814 1602.8 29.9165 1603 29.9165C1603.2 29.9165 1603.36 29.9814 1603.49 30.1113C1603.62 30.2412 1603.69 30.4054 1603.69 30.604V32.8957C1603.69 33.0943 1603.62 33.2585 1603.49 33.3884C1603.36 33.5182 1603.2 33.5832 1603 33.5832ZM1603 50.0832C1602.8 50.0832 1602.64 50.0182 1602.51 49.8884C1602.38 49.7585 1602.31 49.5943 1602.31 49.3957V47.104C1602.31 46.9054 1602.38 46.7412 1602.51 46.6113C1602.64 46.4814 1602.8 46.4165 1603 46.4165C1603.2 46.4165 1603.36 46.4814 1603.49 46.6113C1603.62 46.7412 1603.69 46.9054 1603.69 47.104V49.3957C1603.69 49.5943 1603.62 49.7585 1603.49 49.8884C1603.36 50.0182 1603.2 50.0832 1603 50.0832ZM1597.5 35.4623L1596.19 34.179C1596.06 34.0415 1595.99 33.8773 1596 33.6863C1596.01 33.4953 1596.07 33.3311 1596.19 33.1936C1596.33 33.0561 1596.5 32.9873 1596.69 32.9873C1596.88 32.9873 1597.04 33.0561 1597.18 33.1936L1598.46 34.4998C1598.58 34.6373 1598.65 34.7978 1598.65 34.9811C1598.65 35.1644 1598.58 35.3172 1598.46 35.4394C1598.34 35.5769 1598.18 35.6457 1597.99 35.6457C1597.8 35.6457 1597.64 35.5846 1597.5 35.4623ZM1608.82 46.8061L1607.54 45.4998C1607.42 45.3623 1607.35 45.1981 1607.35 45.0071C1607.35 44.8162 1607.42 44.6596 1607.56 44.5373C1607.68 44.3998 1607.84 44.3311 1608.02 44.3311C1608.2 44.3311 1608.36 44.3998 1608.5 44.5373L1609.81 45.8207C1609.94 45.9582 1610.01 46.1224 1610 46.3134C1609.99 46.5044 1609.93 46.6686 1609.81 46.8061C1609.67 46.9436 1609.5 47.0123 1609.31 47.0123C1609.12 47.0123 1608.96 46.9436 1608.82 46.8061ZM1607.54 35.4623C1607.4 35.3248 1607.33 35.1644 1607.33 34.9811C1607.33 34.7978 1607.4 34.6373 1607.54 34.4998L1608.82 33.1936C1608.96 33.0561 1609.12 32.9912 1609.31 32.9988C1609.5 33.0064 1609.67 33.0714 1609.81 33.1936C1609.94 33.3311 1610.01 33.4953 1610.01 33.6863C1610.01 33.8773 1609.94 34.0415 1609.81 34.179L1608.5 35.4623C1608.38 35.5846 1608.22 35.6457 1608.03 35.6457C1607.84 35.6457 1607.67 35.5846 1607.54 35.4623ZM1596.19 46.8061C1596.06 46.6686 1595.99 46.5044 1595.99 46.3134C1595.99 46.1224 1596.06 45.9582 1596.19 45.8207L1597.5 44.5373C1597.64 44.3998 1597.8 44.3311 1597.98 44.3311C1598.16 44.3311 1598.32 44.3998 1598.46 44.5373C1598.6 44.6748 1598.67 44.8353 1598.67 45.0186C1598.67 45.2019 1598.6 45.3623 1598.46 45.4998L1597.18 46.8061C1597.04 46.9436 1596.88 47.0085 1596.69 47.0009C1596.5 46.9932 1596.33 46.9283 1596.19 46.8061Z" fill="#F4EDEA"/>
</g>
<rect x="1750.5" y="23.5" width="119" height="33.4828" rx="11.5" stroke="$primaryColor1"/>
<path d="M1794.11 38.2898H1791.98C1791.92 37.9413 1791.81 37.6326 1791.65 37.3636C1791.48 37.0909 1791.28 36.8598 1791.04 36.6705C1790.8 36.4811 1790.52 36.339 1790.21 36.2443C1789.9 36.1458 1789.57 36.0966 1789.22 36.0966C1788.58 36.0966 1788.02 36.2557 1787.53 36.5739C1787.05 36.8883 1786.66 37.3504 1786.39 37.9602C1786.11 38.5663 1785.97 39.3068 1785.97 40.1818C1785.97 41.072 1786.11 41.822 1786.39 42.4318C1786.67 43.0379 1787.05 43.4962 1787.53 43.8068C1788.02 44.1136 1788.58 44.267 1789.21 44.267C1789.56 44.267 1789.88 44.2216 1790.19 44.1307C1790.49 44.036 1790.77 43.8977 1791.01 43.7159C1791.26 43.5341 1791.46 43.3106 1791.63 43.0455C1791.8 42.7803 1791.92 42.4773 1791.98 42.1364L1794.11 42.1477C1794.03 42.7008 1793.86 43.2197 1793.59 43.7045C1793.33 44.1894 1792.99 44.6174 1792.56 44.9886C1792.14 45.3561 1791.64 45.6439 1791.07 45.8523C1790.51 46.0568 1789.88 46.1591 1789.18 46.1591C1788.16 46.1591 1787.25 45.9223 1786.44 45.4489C1785.64 44.9754 1785.01 44.2917 1784.55 43.3977C1784.08 42.5038 1783.85 41.4318 1783.85 40.1818C1783.85 38.928 1784.09 37.8561 1784.55 36.9659C1785.02 36.072 1785.65 35.3883 1786.45 34.9148C1787.26 34.4413 1788.17 34.2045 1789.18 34.2045C1789.83 34.2045 1790.43 34.2955 1790.99 34.4773C1791.55 34.6591 1792.04 34.9261 1792.48 35.2784C1792.91 35.6269 1793.27 36.0549 1793.55 36.5625C1793.84 37.0663 1794.02 37.642 1794.11 38.2898ZM1795.95 46V37.2727H1797.94V38.7273H1798.03C1798.19 38.2235 1798.46 37.8352 1798.85 37.5625C1799.24 37.286 1799.69 37.1477 1800.19 37.1477C1800.3 37.1477 1800.43 37.1534 1800.57 37.1648C1800.71 37.1723 1800.83 37.1856 1800.92 37.2045V39.0966C1800.84 39.0663 1800.7 39.0398 1800.51 39.017C1800.32 38.9905 1800.14 38.9773 1799.97 38.9773C1799.6 38.9773 1799.26 39.0587 1798.96 39.2216C1798.66 39.3807 1798.43 39.6023 1798.26 39.8864C1798.09 40.1705 1798 40.4981 1798 40.8693V46H1795.95ZM1805.8 46.1705C1804.92 46.1705 1804.16 45.9886 1803.53 45.625C1802.9 45.2576 1802.41 44.7386 1802.07 44.0682C1801.73 43.3939 1801.56 42.6004 1801.56 41.6875C1801.56 40.7898 1801.73 40.0019 1802.07 39.3239C1802.41 38.642 1802.89 38.1117 1803.51 37.733C1804.13 37.3504 1804.85 37.1591 1805.69 37.1591C1806.23 37.1591 1806.73 37.2462 1807.21 37.4205C1807.69 37.5909 1808.12 37.8561 1808.48 38.2159C1808.85 38.5758 1809.15 39.0341 1809.36 39.5909C1809.57 40.1439 1809.68 40.803 1809.68 41.5682V42.1989H1802.52V40.8125H1807.7C1807.7 40.4186 1807.62 40.0682 1807.45 39.7614C1807.28 39.4508 1807.05 39.2064 1806.75 39.0284C1806.45 38.8504 1806.11 38.7614 1805.72 38.7614C1805.3 38.7614 1804.93 38.8636 1804.61 39.0682C1804.29 39.2689 1804.04 39.5341 1803.86 39.8636C1803.69 40.1894 1803.6 40.5473 1803.6 40.9375V42.1477C1803.6 42.6553 1803.69 43.0909 1803.88 43.4545C1804.06 43.8144 1804.32 44.0909 1804.65 44.2841C1804.99 44.4735 1805.38 44.5682 1805.82 44.5682C1806.12 44.5682 1806.39 44.5265 1806.64 44.4432C1806.88 44.3561 1807.09 44.2292 1807.27 44.0625C1807.45 43.8958 1807.58 43.6894 1807.67 43.4432L1809.59 43.6591C1809.47 44.1667 1809.24 44.6098 1808.9 44.9886C1808.56 45.3636 1808.13 45.6553 1807.6 45.8636C1807.08 46.0682 1806.47 46.1705 1805.8 46.1705ZM1813.93 46.1761C1813.37 46.1761 1812.88 46.0777 1812.43 45.8807C1811.99 45.6799 1811.65 45.3845 1811.39 44.9943C1811.13 44.6042 1811.01 44.1231 1811.01 43.5511C1811.01 43.0587 1811.1 42.6515 1811.28 42.3295C1811.46 42.0076 1811.71 41.75 1812.02 41.5568C1812.34 41.3636 1812.69 41.2178 1813.09 41.1193C1813.48 41.017 1813.9 40.9432 1814.32 40.8977C1814.83 40.8447 1815.25 40.7973 1815.56 40.7557C1815.88 40.7102 1816.11 40.642 1816.26 40.5511C1816.4 40.4564 1816.48 40.3106 1816.48 40.1136V40.0795C1816.48 39.6515 1816.35 39.3201 1816.1 39.0852C1815.84 38.8504 1815.48 38.733 1815 38.733C1814.5 38.733 1814.1 38.8428 1813.8 39.0625C1813.51 39.2822 1813.31 39.5417 1813.21 39.8409L1811.29 39.5682C1811.44 39.0379 1811.69 38.5947 1812.04 38.2386C1812.39 37.8788 1812.82 37.6098 1813.32 37.4318C1813.82 37.25 1814.38 37.1591 1814.99 37.1591C1815.41 37.1591 1815.83 37.2083 1816.25 37.3068C1816.66 37.4053 1817.04 37.5682 1817.39 37.7955C1817.73 38.0189 1818.01 38.3239 1818.22 38.7102C1818.43 39.0966 1818.54 39.5795 1818.54 40.1591V46H1816.56V44.8011H1816.49C1816.37 45.0436 1816.19 45.2708 1815.96 45.483C1815.74 45.6913 1815.46 45.8598 1815.12 45.9886C1814.78 46.1136 1814.38 46.1761 1813.93 46.1761ZM1814.46 44.6648C1814.87 44.6648 1815.23 44.5833 1815.54 44.4205C1815.84 44.2538 1816.07 44.0341 1816.23 43.7614C1816.4 43.4886 1816.48 43.1913 1816.48 42.8693V41.8409C1816.42 41.8939 1816.31 41.9432 1816.15 41.9886C1816 42.0341 1815.83 42.0739 1815.64 42.108C1815.45 42.142 1815.27 42.1723 1815.08 42.1989C1814.9 42.2254 1814.73 42.2481 1814.6 42.267C1814.29 42.3087 1814.02 42.3769 1813.77 42.4716C1813.53 42.5663 1813.34 42.6989 1813.2 42.8693C1813.06 43.036 1812.99 43.2519 1812.99 43.517C1812.99 43.8958 1813.13 44.1818 1813.4 44.375C1813.68 44.5682 1814.03 44.6648 1814.46 44.6648ZM1824.96 37.2727V38.8636H1819.94V37.2727H1824.96ZM1821.18 35.1818H1823.24V43.375C1823.24 43.6515 1823.28 43.8636 1823.37 44.0114C1823.45 44.1553 1823.57 44.2538 1823.71 44.3068C1823.85 44.3598 1824 44.3864 1824.17 44.3864C1824.3 44.3864 1824.42 44.3769 1824.52 44.358C1824.63 44.339 1824.72 44.322 1824.77 44.3068L1825.12 45.9148C1825.01 45.9527 1824.85 45.9943 1824.65 46.0398C1824.45 46.0852 1824.2 46.1117 1823.91 46.1193C1823.4 46.1345 1822.93 46.0568 1822.52 45.8864C1822.11 45.7121 1821.78 45.4432 1821.54 45.0795C1821.3 44.7159 1821.18 44.2614 1821.18 43.7159V35.1818ZM1830.45 46.1705C1829.58 46.1705 1828.82 45.9886 1828.18 45.625C1827.55 45.2576 1827.07 44.7386 1826.72 44.0682C1826.38 43.3939 1826.21 42.6004 1826.21 41.6875C1826.21 40.7898 1826.38 40.0019 1826.72 39.3239C1827.07 38.642 1827.55 38.1117 1828.17 37.733C1828.79 37.3504 1829.51 37.1591 1830.34 37.1591C1830.88 37.1591 1831.39 37.2462 1831.87 37.4205C1832.35 37.5909 1832.77 37.8561 1833.14 38.2159C1833.51 38.5758 1833.8 39.0341 1834.01 39.5909C1834.23 40.1439 1834.33 40.803 1834.33 41.5682V42.1989H1827.18V40.8125H1832.36C1832.36 40.4186 1832.27 40.0682 1832.11 39.7614C1831.94 39.4508 1831.71 39.2064 1831.41 39.0284C1831.11 38.8504 1830.77 38.7614 1830.37 38.7614C1829.95 38.7614 1829.58 38.8636 1829.26 39.0682C1828.95 39.2689 1828.7 39.5341 1828.52 39.8636C1828.35 40.1894 1828.26 40.5473 1828.25 40.9375V42.1477C1828.25 42.6553 1828.35 43.0909 1828.53 43.4545C1828.72 43.8144 1828.98 44.0909 1829.31 44.2841C1829.64 44.4735 1830.03 44.5682 1830.48 44.5682C1830.78 44.5682 1831.05 44.5265 1831.29 44.4432C1831.54 44.3561 1831.75 44.2292 1831.92 44.0625C1832.1 43.8958 1832.24 43.6894 1832.33 43.4432L1834.25 43.6591C1834.13 44.1667 1833.89 44.6098 1833.55 44.9886C1833.22 45.3636 1832.79 45.6553 1832.26 45.8636C1831.73 46.0682 1831.13 46.1705 1830.45 46.1705Z" fill="white"/>
<path d="M879.388 183.455V198H877.044L870.19 188.092H870.07V198H867.435V183.455H869.793L876.639 193.369H876.767V183.455H879.388ZM886.975 198.213C885.881 198.213 884.936 197.986 884.141 197.531C883.35 197.072 882.742 196.423 882.316 195.585C881.89 194.742 881.676 193.75 881.676 192.609C881.676 191.487 881.89 190.502 882.316 189.655C882.747 188.803 883.348 188.14 884.12 187.666C884.891 187.188 885.798 186.949 886.84 186.949C887.512 186.949 888.147 187.058 888.743 187.276C889.345 187.489 889.875 187.82 890.334 188.27C890.798 188.72 891.163 189.293 891.428 189.989C891.693 190.68 891.826 191.504 891.826 192.46V193.249H882.884V191.516H889.361C889.356 191.023 889.25 190.585 889.042 190.202C888.833 189.813 888.542 189.508 888.168 189.286C887.799 189.063 887.368 188.952 886.875 188.952C886.35 188.952 885.888 189.08 885.49 189.335C885.093 189.586 884.783 189.918 884.56 190.33C884.342 190.737 884.231 191.184 884.226 191.672V193.185C884.226 193.819 884.342 194.364 884.574 194.818C884.806 195.268 885.131 195.614 885.547 195.855C885.964 196.092 886.452 196.21 887.01 196.21C887.384 196.21 887.723 196.158 888.026 196.054C888.329 195.945 888.592 195.786 888.814 195.578C889.037 195.37 889.205 195.112 889.319 194.804L891.719 195.074C891.568 195.708 891.279 196.262 890.853 196.736C890.431 197.205 889.891 197.569 889.233 197.83C888.575 198.085 887.822 198.213 886.975 198.213ZM896.194 198L893.111 187.091H895.732L897.65 194.761H897.749L899.709 187.091H902.301L904.262 194.719H904.368L906.257 187.091H908.885L905.796 198H903.118L901.073 190.628H900.924L898.878 198H896.194ZM915.755 183.455H918.979L923.298 193.994H923.468L927.786 183.455H931.011V198H928.482V188.007H928.347L924.327 197.957H922.438L918.418 187.986H918.283V198H915.755V183.455ZM938.596 198.213C937.502 198.213 936.558 197.986 935.762 197.531C934.971 197.072 934.363 196.423 933.937 195.585C933.511 194.742 933.298 193.75 933.298 192.609C933.298 191.487 933.511 190.502 933.937 189.655C934.368 188.803 934.969 188.14 935.741 187.666C936.513 187.188 937.419 186.949 938.461 186.949C939.133 186.949 939.768 187.058 940.364 187.276C940.966 187.489 941.496 187.82 941.955 188.27C942.419 188.72 942.784 189.293 943.049 189.989C943.314 190.68 943.447 191.504 943.447 192.46V193.249H934.505V191.516H940.982C940.978 191.023 940.871 190.585 940.663 190.202C940.454 189.813 940.163 189.508 939.789 189.286C939.42 189.063 938.989 188.952 938.496 188.952C937.971 188.952 937.509 189.08 937.112 189.335C936.714 189.586 936.404 189.918 936.181 190.33C935.963 190.737 935.852 191.184 935.847 191.672V193.185C935.847 193.819 935.963 194.364 936.195 194.818C936.427 195.268 936.752 195.614 937.168 195.855C937.585 196.092 938.073 196.21 938.631 196.21C939.005 196.21 939.344 196.158 939.647 196.054C939.95 195.945 940.213 195.786 940.435 195.578C940.658 195.37 940.826 195.112 940.94 194.804L943.34 195.074C943.189 195.708 942.9 196.262 942.474 196.736C942.052 197.205 941.513 197.569 940.854 197.83C940.196 198.085 939.443 198.213 938.596 198.213ZM950.451 198.213C949.358 198.213 948.413 197.986 947.618 197.531C946.827 197.072 946.218 196.423 945.792 195.585C945.366 194.742 945.153 193.75 945.153 192.609C945.153 191.487 945.366 190.502 945.792 189.655C946.223 188.803 946.824 188.14 947.596 187.666C948.368 187.188 949.275 186.949 950.316 186.949C950.989 186.949 951.623 187.058 952.22 187.276C952.821 187.489 953.351 187.82 953.811 188.27C954.275 188.72 954.639 189.293 954.904 189.989C955.17 190.68 955.302 191.504 955.302 192.46V193.249H946.36V191.516H952.838C952.833 191.023 952.726 190.585 952.518 190.202C952.31 189.813 952.019 189.508 951.645 189.286C951.275 189.063 950.844 188.952 950.352 188.952C949.826 188.952 949.365 189.08 948.967 189.335C948.569 189.586 948.259 189.918 948.037 190.33C947.819 190.737 947.708 191.184 947.703 191.672V193.185C947.703 193.819 947.819 194.364 948.051 194.818C948.283 195.268 948.607 195.614 949.024 195.855C949.44 196.092 949.928 196.21 950.487 196.21C950.861 196.21 951.199 196.158 951.502 196.054C951.806 195.945 952.068 195.786 952.291 195.578C952.513 195.37 952.681 195.112 952.795 194.804L955.196 195.074C955.044 195.708 954.755 196.262 954.329 196.736C953.908 197.205 953.368 197.569 952.71 197.83C952.052 198.085 951.299 198.213 950.451 198.213ZM962.925 187.091V189.08H956.653V187.091H962.925ZM958.202 184.477H960.773V194.719C960.773 195.064 960.825 195.33 960.929 195.514C961.038 195.694 961.18 195.817 961.355 195.884C961.53 195.95 961.724 195.983 961.938 195.983C962.098 195.983 962.245 195.971 962.378 195.947C962.515 195.924 962.619 195.902 962.69 195.884L963.124 197.893C962.986 197.941 962.79 197.993 962.534 198.05C962.283 198.107 961.975 198.14 961.611 198.149C960.967 198.168 960.387 198.071 959.871 197.858C959.355 197.64 958.945 197.304 958.642 196.849C958.344 196.395 958.197 195.827 958.202 195.145V184.477ZM965.075 198V187.091H967.646V198H965.075ZM966.368 185.543C965.96 185.543 965.61 185.408 965.316 185.138C965.023 184.863 964.876 184.534 964.876 184.151C964.876 183.762 965.023 183.433 965.316 183.163C965.61 182.889 965.96 182.751 966.368 182.751C966.779 182.751 967.13 182.889 967.419 183.163C967.712 183.433 967.859 183.762 967.859 184.151C967.859 184.534 967.712 184.863 967.419 185.138C967.13 185.408 966.779 185.543 966.368 185.543ZM972.861 191.608V198H970.29V187.091H972.747V188.945H972.875C973.126 188.334 973.526 187.848 974.075 187.489C974.629 187.129 975.313 186.949 976.128 186.949C976.881 186.949 977.536 187.11 978.095 187.432C978.659 187.754 979.094 188.22 979.402 188.831C979.714 189.442 979.868 190.183 979.864 191.054V198H977.293V191.452C977.293 190.723 977.103 190.152 976.724 189.74C976.35 189.328 975.832 189.122 975.169 189.122C974.719 189.122 974.319 189.222 973.969 189.42C973.623 189.615 973.351 189.896 973.152 190.266C972.958 190.635 972.861 191.082 972.861 191.608ZM987.222 202.318C986.298 202.318 985.505 202.193 984.842 201.942C984.179 201.696 983.647 201.364 983.244 200.947C982.842 200.531 982.562 200.069 982.406 199.562L984.722 199.001C984.826 199.214 984.977 199.425 985.176 199.634C985.375 199.847 985.643 200.022 985.979 200.159C986.32 200.301 986.748 200.372 987.264 200.372C987.993 200.372 988.597 200.195 989.075 199.839C989.554 199.489 989.793 198.911 989.793 198.107V196.04H989.665C989.532 196.305 989.338 196.577 989.082 196.857C988.831 197.136 988.498 197.37 988.081 197.56C987.669 197.749 987.151 197.844 986.526 197.844C985.688 197.844 984.928 197.647 984.246 197.254C983.569 196.857 983.029 196.265 982.626 195.479C982.229 194.688 982.03 193.698 982.03 192.51C982.03 191.312 982.229 190.301 982.626 189.477C983.029 188.649 983.571 188.021 984.253 187.595C984.935 187.164 985.695 186.949 986.533 186.949C987.172 186.949 987.697 187.058 988.109 187.276C988.526 187.489 988.857 187.747 989.104 188.05C989.35 188.348 989.537 188.63 989.665 188.895H989.807V187.091H992.342V198.178C992.342 199.11 992.12 199.882 991.675 200.493C991.23 201.104 990.621 201.561 989.849 201.864C989.078 202.167 988.202 202.318 987.222 202.318ZM987.243 195.827C987.787 195.827 988.251 195.694 988.635 195.429C989.018 195.164 989.31 194.783 989.509 194.286C989.707 193.788 989.807 193.192 989.807 192.496C989.807 191.809 989.707 191.208 989.509 190.692C989.314 190.176 989.026 189.776 988.642 189.491C988.263 189.203 987.797 189.058 987.243 189.058C986.67 189.058 986.192 189.207 985.808 189.506C985.425 189.804 985.136 190.214 984.942 190.734C984.748 191.25 984.651 191.838 984.651 192.496C984.651 193.163 984.748 193.748 984.942 194.25C985.141 194.747 985.432 195.135 985.815 195.415C986.204 195.689 986.679 195.827 987.243 195.827ZM1012 183.455V198H1009.66L1002.81 188.092H1002.69V198H1000.05V183.455H1002.41L1009.26 193.369H1009.38V183.455H1012ZM1017.9 198.22C1017.21 198.22 1016.59 198.097 1016.03 197.851C1015.48 197.6 1015.05 197.231 1014.73 196.743C1014.41 196.255 1014.25 195.654 1014.25 194.939C1014.25 194.323 1014.36 193.814 1014.59 193.412C1014.82 193.009 1015.13 192.688 1015.52 192.446C1015.92 192.205 1016.36 192.022 1016.85 191.899C1017.35 191.771 1017.86 191.679 1018.39 191.622C1019.03 191.556 1019.55 191.497 1019.95 191.445C1020.34 191.388 1020.63 191.303 1020.81 191.189C1021 191.071 1021.09 190.888 1021.09 190.642V190.599C1021.09 190.064 1020.93 189.65 1020.61 189.357C1020.3 189.063 1019.84 188.916 1019.24 188.916C1018.61 188.916 1018.11 189.054 1017.75 189.328C1017.38 189.603 1017.13 189.927 1017.01 190.301L1014.61 189.96C1014.8 189.297 1015.11 188.743 1015.54 188.298C1015.98 187.848 1016.51 187.512 1017.14 187.29C1017.77 187.062 1018.47 186.949 1019.23 186.949C1019.76 186.949 1020.28 187.01 1020.8 187.134C1021.32 187.257 1021.8 187.46 1022.23 187.744C1022.66 188.024 1023 188.405 1023.26 188.888C1023.53 189.371 1023.66 189.974 1023.66 190.699V198H1021.19V196.501H1021.1C1020.95 196.804 1020.73 197.089 1020.44 197.354C1020.16 197.614 1019.81 197.825 1019.39 197.986C1018.96 198.142 1018.47 198.22 1017.9 198.22ZM1018.57 196.331C1019.09 196.331 1019.53 196.229 1019.91 196.026C1020.29 195.817 1020.58 195.543 1020.79 195.202C1020.99 194.861 1021.1 194.489 1021.1 194.087V192.801C1021.02 192.867 1020.88 192.929 1020.69 192.986C1020.5 193.043 1020.28 193.092 1020.05 193.135C1019.81 193.178 1019.58 193.215 1019.34 193.249C1019.11 193.282 1018.91 193.31 1018.74 193.334C1018.36 193.386 1018.01 193.471 1017.71 193.589C1017.41 193.708 1017.17 193.874 1016.99 194.087C1016.82 194.295 1016.73 194.565 1016.73 194.896C1016.73 195.37 1016.9 195.727 1017.25 195.969C1017.59 196.21 1018.03 196.331 1018.57 196.331ZM1026.25 198V187.091H1028.7V188.945H1028.83C1029.06 188.32 1029.44 187.832 1029.96 187.482C1030.49 187.126 1031.11 186.949 1031.84 186.949C1032.58 186.949 1033.2 187.129 1033.71 187.489C1034.22 187.844 1034.58 188.329 1034.79 188.945H1034.9C1035.15 188.339 1035.55 187.856 1036.13 187.496C1036.7 187.131 1037.39 186.949 1038.18 186.949C1039.18 186.949 1040 187.266 1040.64 187.901C1041.27 188.535 1041.59 189.461 1041.59 190.678V198H1039.01V191.075C1039.01 190.398 1038.83 189.903 1038.47 189.591C1038.11 189.274 1037.67 189.115 1037.15 189.115C1036.53 189.115 1036.04 189.309 1035.69 189.697C1035.35 190.081 1035.17 190.58 1035.17 191.196V198H1032.65V190.969C1032.65 190.405 1032.48 189.955 1032.14 189.619C1031.81 189.283 1031.37 189.115 1030.82 189.115C1030.45 189.115 1030.12 189.21 1029.81 189.399C1029.51 189.584 1029.27 189.847 1029.09 190.188C1028.91 190.524 1028.82 190.917 1028.82 191.366V198H1026.25ZM1049.03 198.213C1047.93 198.213 1046.99 197.986 1046.19 197.531C1045.4 197.072 1044.79 196.423 1044.37 195.585C1043.94 194.742 1043.73 193.75 1043.73 192.609C1043.73 191.487 1043.94 190.502 1044.37 189.655C1044.8 188.803 1045.4 188.14 1046.17 187.666C1046.94 187.188 1047.85 186.949 1048.89 186.949C1049.56 186.949 1050.2 187.058 1050.79 187.276C1051.4 187.489 1051.93 187.82 1052.38 188.27C1052.85 188.72 1053.21 189.293 1053.48 189.989C1053.74 190.68 1053.88 191.504 1053.88 192.46V193.249H1044.93V191.516H1051.41C1051.41 191.023 1051.3 190.585 1051.09 190.202C1050.88 189.813 1050.59 189.508 1050.22 189.286C1049.85 189.063 1049.42 188.952 1048.93 188.952C1048.4 188.952 1047.94 189.08 1047.54 189.335C1047.14 189.586 1046.83 189.918 1046.61 190.33C1046.39 190.737 1046.28 191.184 1046.28 191.672V193.185C1046.28 193.819 1046.39 194.364 1046.62 194.818C1046.86 195.268 1047.18 195.614 1047.6 195.855C1048.01 196.092 1048.5 196.21 1049.06 196.21C1049.44 196.21 1049.77 196.158 1050.08 196.054C1050.38 195.945 1050.64 195.786 1050.87 195.578C1051.09 195.37 1051.26 195.112 1051.37 194.804L1053.77 195.074C1053.62 195.708 1053.33 196.262 1052.9 196.736C1052.48 197.205 1051.94 197.569 1051.28 197.83C1050.63 198.085 1049.87 198.213 1049.03 198.213Z" fill="#FFFDF7"/>
<line x1="760" y1="216.5" x2="1160" y2="216.5" stroke="#FFFDF7"/>
<rect x="49" y="21" width="4" height="32" fill="url(#paint2_linear_233_198)"/>
<rect x="55" y="31" width="4" height="22" fill="url(#paint3_linear_233_198)"/>
<path d="M71.1378 34.9091H74.5511L78.1562 43.7045H78.3097L81.9148 34.9091H85.3281V48H82.6435V39.4794H82.5348L79.147 47.9361H77.3189L73.9311 39.4474H73.8224V48H71.1378V34.9091ZM92.0318 48.1918C91.0218 48.1918 90.1525 47.9872 89.4238 47.5781C88.6994 47.1648 88.1412 46.581 87.7491 45.8267C87.3571 45.0682 87.161 44.1712 87.161 43.1357C87.161 42.1257 87.3571 41.2393 87.7491 40.4766C88.1412 39.7138 88.693 39.1193 89.4047 38.6932C90.1206 38.267 90.96 38.054 91.9231 38.054C92.5708 38.054 93.1738 38.1584 93.7321 38.3672C94.2946 38.5717 94.7846 38.8807 95.2022 39.294C95.6241 39.7074 95.9522 40.2273 96.1866 40.8537C96.421 41.4759 96.5382 42.2045 96.5382 43.0398V43.7876H88.2477V42.1001H93.975C93.975 41.7081 93.8897 41.3608 93.7193 41.0582C93.5488 40.7557 93.3123 40.5192 93.0098 40.3487C92.7115 40.174 92.3642 40.0866 91.9679 40.0866C91.5545 40.0866 91.188 40.1825 90.8684 40.3743C90.5531 40.5618 90.3059 40.8153 90.127 41.1349C89.948 41.4503 89.8564 41.8018 89.8521 42.1896V43.794C89.8521 44.2798 89.9416 44.6996 90.1206 45.0533C90.3038 45.407 90.5616 45.6797 90.894 45.8714C91.2264 46.0632 91.6206 46.1591 92.0765 46.1591C92.3791 46.1591 92.6561 46.1165 92.9075 46.0312C93.1589 45.946 93.3741 45.8182 93.5531 45.6477C93.7321 45.4773 93.8684 45.2685 93.9622 45.0213L96.4806 45.1875C96.3528 45.7926 96.0907 46.321 95.6944 46.7727C95.3024 47.2202 94.7953 47.5696 94.1731 47.821C93.5552 48.0682 92.8414 48.1918 92.0318 48.1918ZM102.79 48.1918C101.78 48.1918 100.91 47.9872 100.182 47.5781C99.4572 47.1648 98.899 46.581 98.5069 45.8267C98.1149 45.0682 97.9189 44.1712 97.9189 43.1357C97.9189 42.1257 98.1149 41.2393 98.5069 40.4766C98.899 39.7138 99.4508 39.1193 100.162 38.6932C100.878 38.267 101.718 38.054 102.681 38.054C103.329 38.054 103.932 38.1584 104.49 38.3672C105.052 38.5717 105.542 38.8807 105.96 39.294C106.382 39.7074 106.71 40.2273 106.944 40.8537C107.179 41.4759 107.296 42.2045 107.296 43.0398V43.7876H99.0055V42.1001H104.733C104.733 41.7081 104.648 41.3608 104.477 41.0582C104.307 40.7557 104.07 40.5192 103.768 40.3487C103.469 40.174 103.122 40.0866 102.726 40.0866C102.312 40.0866 101.946 40.1825 101.626 40.3743C101.311 40.5618 101.064 40.8153 100.885 41.1349C100.706 41.4503 100.614 41.8018 100.61 42.1896V43.794C100.61 44.2798 100.699 44.6996 100.878 45.0533C101.062 45.407 101.319 45.6797 101.652 45.8714C101.984 46.0632 102.378 46.1591 102.834 46.1591C103.137 46.1591 103.414 46.1165 103.665 46.0312C103.917 45.946 104.132 45.8182 104.311 45.6477C104.49 45.4773 104.626 45.2685 104.72 45.0213L107.238 45.1875C107.111 45.7926 106.849 46.321 106.452 46.7727C106.06 47.2202 105.553 47.5696 104.931 47.821C104.313 48.0682 103.599 48.1918 102.79 48.1918ZM114.295 38.1818V40.2273H108.383V38.1818H114.295ZM109.725 35.8295H112.448V44.983C112.448 45.2344 112.486 45.4304 112.563 45.571C112.64 45.7074 112.746 45.8033 112.883 45.8587C113.023 45.9141 113.185 45.9418 113.368 45.9418C113.496 45.9418 113.624 45.9311 113.752 45.9098C113.88 45.8842 113.978 45.8651 114.046 45.8523L114.474 47.8786C114.338 47.9212 114.146 47.9702 113.899 48.0256C113.652 48.0852 113.351 48.1214 112.998 48.1342C112.341 48.1598 111.766 48.0724 111.272 47.8722C110.782 47.6719 110.4 47.3608 110.128 46.9389C109.855 46.517 109.721 45.9844 109.725 45.3409V35.8295ZM116.331 34.9091H119.744L123.35 43.7045H123.503L127.108 34.9091H130.521V48H127.837V39.4794H127.728L124.34 47.9361H122.512L119.124 39.4474H119.016V48H116.331V34.9091ZM137.225 48.1918C136.215 48.1918 135.346 47.9872 134.617 47.5781C133.893 47.1648 133.335 46.581 132.942 45.8267C132.55 45.0682 132.354 44.1712 132.354 43.1357C132.354 42.1257 132.55 41.2393 132.942 40.4766C133.335 39.7138 133.886 39.1193 134.598 38.6932C135.314 38.267 136.153 38.054 137.116 38.054C137.764 38.054 138.367 38.1584 138.925 38.3672C139.488 38.5717 139.978 38.8807 140.396 39.294C140.817 39.7074 141.146 40.2273 141.38 40.8537C141.614 41.4759 141.732 42.2045 141.732 43.0398V43.7876H133.441V42.1001H139.168C139.168 41.7081 139.083 41.3608 138.913 41.0582C138.742 40.7557 138.506 40.5192 138.203 40.3487C137.905 40.174 137.558 40.0866 137.161 40.0866C136.748 40.0866 136.381 40.1825 136.062 40.3743C135.746 40.5618 135.499 40.8153 135.32 41.1349C135.141 41.4503 135.05 41.8018 135.045 42.1896V43.794C135.045 44.2798 135.135 44.6996 135.314 45.0533C135.497 45.407 135.755 45.6797 136.087 45.8714C136.42 46.0632 136.814 46.1591 137.27 46.1591C137.572 46.1591 137.849 46.1165 138.101 46.0312C138.352 45.946 138.567 45.8182 138.746 45.6477C138.925 45.4773 139.062 45.2685 139.156 45.0213L141.674 45.1875C141.546 45.7926 141.284 46.321 140.888 46.7727C140.496 47.2202 139.989 47.5696 139.366 47.821C138.749 48.0682 138.035 48.1918 137.225 48.1918Z" fill="white"/>
<rect x="871" y="854" width="180" height="50" rx="12" fill="url(#paint4_linear_233_198)"/>
<path d="M944.496 877.326H942.106C942.038 876.934 941.912 876.587 941.729 876.284C941.545 875.977 941.317 875.717 941.045 875.504C940.772 875.291 940.461 875.131 940.112 875.025C939.766 874.914 939.393 874.859 938.993 874.859C938.281 874.859 937.651 875.038 937.101 875.396C936.551 875.749 936.121 876.269 935.81 876.955C935.499 877.637 935.343 878.47 935.343 879.455C935.343 880.456 935.499 881.3 935.81 881.986C936.125 882.668 936.555 883.183 937.101 883.533C937.651 883.878 938.279 884.05 938.987 884.05C939.379 884.05 939.745 883.999 940.086 883.897C940.431 883.79 940.74 883.635 941.013 883.43C941.29 883.226 941.522 882.974 941.71 882.676C941.901 882.378 942.033 882.037 942.106 881.653L944.496 881.666C944.407 882.288 944.213 882.872 943.915 883.418C943.621 883.963 943.235 884.445 942.758 884.862C942.281 885.276 941.722 885.599 941.083 885.834C940.444 886.064 939.734 886.179 938.955 886.179C937.804 886.179 936.777 885.913 935.874 885.38C934.97 884.847 934.259 884.078 933.739 883.072C933.219 882.067 932.959 880.861 932.959 879.455C932.959 878.044 933.221 876.838 933.745 875.837C934.269 874.831 934.983 874.062 935.886 873.529C936.79 872.996 937.813 872.73 938.955 872.73C939.683 872.73 940.361 872.832 940.987 873.037C941.614 873.241 942.172 873.542 942.662 873.938C943.152 874.33 943.555 874.812 943.87 875.383C944.19 875.95 944.398 876.597 944.496 877.326ZM946.566 886V876.182H948.809V877.818H948.912C949.091 877.251 949.398 876.815 949.832 876.508C950.271 876.197 950.772 876.041 951.334 876.041C951.462 876.041 951.605 876.048 951.763 876.06C951.925 876.069 952.059 876.084 952.165 876.105V878.234C952.067 878.2 951.912 878.17 951.699 878.144C951.49 878.114 951.287 878.099 951.091 878.099C950.67 878.099 950.29 878.191 949.954 878.374C949.621 878.553 949.359 878.803 949.167 879.122C948.976 879.442 948.88 879.81 948.88 880.228V886H946.566ZM957.645 886.192C956.661 886.192 955.81 885.987 955.094 885.578C954.383 885.165 953.835 884.581 953.452 883.827C953.068 883.068 952.876 882.175 952.876 881.148C952.876 880.138 953.068 879.252 953.452 878.489C953.839 877.722 954.381 877.126 955.075 876.7C955.77 876.269 956.586 876.054 957.523 876.054C958.129 876.054 958.7 876.152 959.237 876.348C959.778 876.54 960.255 876.838 960.668 877.243C961.086 877.648 961.414 878.163 961.653 878.79C961.891 879.412 962.011 880.153 962.011 881.014V881.724H953.963V880.164H959.793C959.788 879.721 959.692 879.327 959.505 878.982C959.317 878.632 959.055 878.357 958.719 878.157C958.386 877.957 957.999 877.857 957.555 877.857C957.082 877.857 956.667 877.972 956.309 878.202C955.951 878.428 955.672 878.726 955.472 879.097C955.276 879.463 955.175 879.866 955.171 880.305V881.666C955.171 882.237 955.276 882.727 955.484 883.136C955.693 883.541 955.985 883.852 956.36 884.07C956.735 884.283 957.174 884.389 957.677 884.389C958.013 884.389 958.318 884.342 958.591 884.249C958.864 884.151 959.1 884.008 959.3 883.82C959.501 883.633 959.652 883.401 959.754 883.124L961.915 883.366C961.778 883.937 961.518 884.436 961.135 884.862C960.756 885.284 960.27 885.612 959.678 885.847C959.085 886.077 958.408 886.192 957.645 886.192ZM966.794 886.198C966.171 886.198 965.611 886.087 965.112 885.866C964.618 885.64 964.226 885.308 963.936 884.869C963.651 884.43 963.508 883.888 963.508 883.245C963.508 882.691 963.61 882.233 963.815 881.871C964.019 881.509 964.298 881.219 964.652 881.001C965.006 880.784 965.404 880.62 965.847 880.509C966.295 880.394 966.757 880.311 967.235 880.26C967.81 880.2 968.276 880.147 968.634 880.1C968.992 880.049 969.252 879.972 969.414 879.87C969.58 879.763 969.664 879.599 969.664 879.378V879.339C969.664 878.858 969.521 878.485 969.235 878.221C968.95 877.957 968.539 877.825 968.002 877.825C967.435 877.825 966.985 877.948 966.653 878.195C966.325 878.442 966.103 878.734 965.988 879.071L963.828 878.764C963.998 878.168 964.279 877.669 964.671 877.268C965.063 876.864 965.543 876.561 966.11 876.361C966.676 876.156 967.303 876.054 967.989 876.054C968.462 876.054 968.933 876.109 969.401 876.22C969.87 876.331 970.298 876.514 970.686 876.77C971.074 877.021 971.385 877.364 971.619 877.799C971.858 878.234 971.977 878.777 971.977 879.429V886H969.753V884.651H969.676C969.536 884.924 969.338 885.18 969.082 885.418C968.83 885.653 968.513 885.842 968.129 885.987C967.75 886.128 967.305 886.198 966.794 886.198ZM967.394 884.498C967.859 884.498 968.262 884.406 968.602 884.223C968.943 884.036 969.205 883.788 969.389 883.482C969.576 883.175 969.67 882.84 969.67 882.478V881.321C969.597 881.381 969.474 881.436 969.299 881.487C969.129 881.538 968.937 881.583 968.724 881.621C968.511 881.66 968.3 881.694 968.091 881.724C967.882 881.754 967.701 881.779 967.548 881.8C967.203 881.847 966.894 881.924 966.621 882.031C966.348 882.137 966.133 882.286 965.975 882.478C965.818 882.665 965.739 882.908 965.739 883.207C965.739 883.633 965.894 883.955 966.205 884.172C966.517 884.389 966.913 884.498 967.394 884.498ZM979.207 876.182V877.972H973.563V876.182H979.207ZM974.956 873.83H977.27V883.047C977.27 883.358 977.317 883.597 977.411 883.763C977.509 883.925 977.637 884.036 977.794 884.095C977.952 884.155 978.127 884.185 978.318 884.185C978.463 884.185 978.595 884.174 978.715 884.153C978.838 884.131 978.932 884.112 978.996 884.095L979.386 885.904C979.262 885.947 979.085 885.994 978.855 886.045C978.629 886.096 978.352 886.126 978.024 886.134C977.445 886.151 976.923 886.064 976.458 885.872C975.994 885.676 975.625 885.374 975.352 884.964C975.084 884.555 974.952 884.044 974.956 883.43V873.83ZM985.383 886.192C984.399 886.192 983.549 885.987 982.833 885.578C982.121 885.165 981.574 884.581 981.19 883.827C980.806 883.068 980.615 882.175 980.615 881.148C980.615 880.138 980.806 879.252 981.19 878.489C981.578 877.722 982.119 877.126 982.814 876.7C983.508 876.269 984.324 876.054 985.262 876.054C985.867 876.054 986.438 876.152 986.975 876.348C987.516 876.54 987.993 876.838 988.407 877.243C988.824 877.648 989.152 878.163 989.391 878.79C989.63 879.412 989.749 880.153 989.749 881.014V881.724H981.701V880.164H987.531C987.527 879.721 987.431 879.327 987.243 878.982C987.056 878.632 986.794 878.357 986.457 878.157C986.125 877.957 985.737 877.857 985.294 877.857C984.821 877.857 984.405 877.972 984.047 878.202C983.689 878.428 983.41 878.726 983.21 879.097C983.014 879.463 982.914 879.866 982.909 880.305V881.666C982.909 882.237 983.014 882.727 983.223 883.136C983.431 883.541 983.723 883.852 984.098 884.07C984.473 884.283 984.912 884.389 985.415 884.389C985.752 884.389 986.056 884.342 986.329 884.249C986.602 884.151 986.838 884.008 987.039 883.82C987.239 883.633 987.39 883.401 987.493 883.124L989.653 883.366C989.517 883.937 989.257 884.436 988.873 884.862C988.494 885.284 988.008 885.612 987.416 885.847C986.824 886.077 986.146 886.192 985.383 886.192Z" fill="white"/>
<rect x="761" y="277" width="14" height="14" stroke="#FFFDF7" stroke-width="2"/>
<path d="M800.773 280.273C800.705 279.697 800.428 279.25 799.943 278.932C799.458 278.614 798.864 278.455 798.159 278.455C797.644 278.455 797.193 278.538 796.807 278.705C796.424 278.871 796.125 279.1 795.909 279.392C795.697 279.684 795.591 280.015 795.591 280.386C795.591 280.697 795.665 280.964 795.812 281.188C795.964 281.407 796.157 281.591 796.392 281.739C796.627 281.883 796.873 282.002 797.131 282.097C797.388 282.187 797.625 282.261 797.841 282.318L799.023 282.636C799.326 282.716 799.663 282.826 800.034 282.966C800.409 283.106 800.767 283.297 801.108 283.54C801.453 283.778 801.737 284.085 801.96 284.46C802.184 284.835 802.295 285.295 802.295 285.841C802.295 286.47 802.131 287.038 801.801 287.545C801.475 288.053 800.998 288.456 800.369 288.756C799.744 289.055 798.985 289.205 798.091 289.205C797.258 289.205 796.536 289.07 795.926 288.801C795.32 288.532 794.843 288.157 794.494 287.676C794.15 287.195 793.955 286.636 793.909 286H795.364C795.402 286.439 795.549 286.803 795.807 287.091C796.068 287.375 796.398 287.587 796.795 287.727C797.197 287.864 797.629 287.932 798.091 287.932C798.629 287.932 799.112 287.845 799.54 287.67C799.968 287.492 800.307 287.246 800.557 286.932C800.807 286.614 800.932 286.242 800.932 285.818C800.932 285.432 800.824 285.117 800.608 284.875C800.392 284.633 800.108 284.436 799.756 284.284C799.403 284.133 799.023 284 798.614 283.886L797.182 283.477C796.273 283.216 795.553 282.843 795.023 282.358C794.492 281.873 794.227 281.239 794.227 280.455C794.227 279.803 794.403 279.235 794.756 278.75C795.112 278.261 795.589 277.883 796.188 277.614C796.79 277.341 797.462 277.205 798.205 277.205C798.955 277.205 799.621 277.339 800.205 277.608C800.788 277.873 801.25 278.237 801.591 278.699C801.936 279.161 802.117 279.686 802.136 280.273H800.773ZM808.089 289.182C807.249 289.182 806.523 288.996 805.913 288.625C805.307 288.25 804.839 287.727 804.51 287.057C804.184 286.383 804.021 285.598 804.021 284.705C804.021 283.811 804.184 283.023 804.51 282.341C804.839 281.655 805.298 281.121 805.885 280.739C806.476 280.352 807.165 280.159 807.953 280.159C808.408 280.159 808.857 280.235 809.3 280.386C809.743 280.538 810.146 280.784 810.51 281.125C810.874 281.462 811.163 281.909 811.379 282.466C811.595 283.023 811.703 283.708 811.703 284.523V285.091H804.976V283.932H810.339C810.339 283.439 810.241 283 810.044 282.614C809.851 282.227 809.574 281.922 809.214 281.699C808.858 281.475 808.438 281.364 807.953 281.364C807.419 281.364 806.957 281.496 806.567 281.761C806.18 282.023 805.883 282.364 805.675 282.784C805.466 283.205 805.362 283.655 805.362 284.136V284.909C805.362 285.568 805.476 286.127 805.703 286.585C805.934 287.04 806.254 287.386 806.663 287.625C807.072 287.86 807.548 287.977 808.089 287.977C808.442 287.977 808.76 287.928 809.044 287.83C809.332 287.727 809.58 287.576 809.788 287.375C809.997 287.17 810.158 286.917 810.271 286.614L811.567 286.977C811.43 287.417 811.201 287.803 810.879 288.136C810.557 288.466 810.16 288.723 809.686 288.909C809.213 289.091 808.68 289.182 808.089 289.182ZM817.538 280.273V281.409H813.016V280.273H817.538ZM814.334 278.182H815.675V286.5C815.675 286.879 815.73 287.163 815.839 287.352C815.953 287.538 816.097 287.663 816.271 287.727C816.449 287.788 816.637 287.818 816.834 287.818C816.982 287.818 817.103 287.811 817.197 287.795C817.292 287.777 817.368 287.761 817.425 287.75L817.697 288.955C817.607 288.989 817.48 289.023 817.317 289.057C817.154 289.095 816.947 289.114 816.697 289.114C816.319 289.114 815.947 289.032 815.584 288.869C815.224 288.706 814.925 288.458 814.686 288.125C814.451 287.792 814.334 287.371 814.334 286.864V278.182ZM824.055 292.273V280.273H825.351V281.659H825.51C825.608 281.508 825.745 281.314 825.919 281.08C826.097 280.841 826.351 280.629 826.68 280.443C827.014 280.254 827.464 280.159 828.033 280.159C828.768 280.159 829.415 280.343 829.976 280.71C830.536 281.078 830.974 281.598 831.288 282.273C831.603 282.947 831.76 283.742 831.76 284.659C831.76 285.583 831.603 286.384 831.288 287.062C830.974 287.737 830.538 288.259 829.982 288.631C829.425 288.998 828.783 289.182 828.055 289.182C827.495 289.182 827.046 289.089 826.709 288.903C826.372 288.714 826.112 288.5 825.93 288.261C825.749 288.019 825.608 287.818 825.51 287.659H825.396V292.273H824.055ZM825.374 284.636C825.374 285.295 825.47 285.877 825.663 286.381C825.857 286.881 826.139 287.273 826.51 287.557C826.881 287.837 827.336 287.977 827.874 287.977C828.434 287.977 828.902 287.83 829.277 287.534C829.656 287.235 829.94 286.833 830.129 286.33C830.322 285.822 830.419 285.258 830.419 284.636C830.419 284.023 830.324 283.47 830.135 282.977C829.949 282.481 829.667 282.089 829.288 281.801C828.913 281.509 828.442 281.364 827.874 281.364C827.328 281.364 826.87 281.502 826.499 281.778C826.127 282.051 825.847 282.434 825.658 282.926C825.468 283.415 825.374 283.985 825.374 284.636ZM836.374 289.205C835.821 289.205 835.319 289.1 834.868 288.892C834.417 288.68 834.059 288.375 833.794 287.977C833.529 287.576 833.396 287.091 833.396 286.523C833.396 286.023 833.495 285.617 833.692 285.307C833.889 284.992 834.152 284.746 834.482 284.568C834.811 284.39 835.175 284.258 835.572 284.17C835.974 284.08 836.377 284.008 836.783 283.955C837.313 283.886 837.743 283.835 838.072 283.801C838.406 283.763 838.648 283.701 838.8 283.614C838.955 283.527 839.033 283.375 839.033 283.159V283.114C839.033 282.553 838.879 282.117 838.572 281.807C838.269 281.496 837.809 281.341 837.192 281.341C836.552 281.341 836.05 281.481 835.686 281.761C835.322 282.042 835.067 282.341 834.919 282.659L833.646 282.205C833.874 281.674 834.177 281.261 834.555 280.966C834.938 280.667 835.355 280.458 835.805 280.341C836.26 280.22 836.707 280.159 837.146 280.159C837.427 280.159 837.749 280.193 838.112 280.261C838.48 280.326 838.834 280.46 839.175 280.665C839.519 280.869 839.805 281.178 840.033 281.591C840.26 282.004 840.374 282.557 840.374 283.25V289H839.033V287.818H838.964C838.874 288.008 838.722 288.21 838.51 288.426C838.298 288.642 838.016 288.826 837.663 288.977C837.311 289.129 836.881 289.205 836.374 289.205ZM836.578 288C837.108 288 837.555 287.896 837.919 287.688C838.286 287.479 838.563 287.21 838.749 286.881C838.938 286.551 839.033 286.205 839.033 285.841V284.614C838.976 284.682 838.851 284.744 838.658 284.801C838.468 284.854 838.249 284.902 837.999 284.943C837.752 284.981 837.512 285.015 837.277 285.045C837.046 285.072 836.858 285.095 836.714 285.114C836.366 285.159 836.04 285.233 835.737 285.335C835.438 285.434 835.196 285.583 835.01 285.784C834.828 285.981 834.737 286.25 834.737 286.591C834.737 287.057 834.91 287.409 835.254 287.648C835.603 287.883 836.044 288 836.578 288ZM849.003 282.227L847.798 282.568C847.723 282.367 847.611 282.172 847.463 281.983C847.319 281.79 847.122 281.631 846.872 281.506C846.622 281.381 846.302 281.318 845.912 281.318C845.378 281.318 844.933 281.441 844.577 281.688C844.224 281.93 844.048 282.239 844.048 282.614C844.048 282.947 844.17 283.21 844.412 283.403C844.654 283.597 845.033 283.758 845.548 283.886L846.844 284.205C847.624 284.394 848.205 284.684 848.588 285.074C848.971 285.46 849.162 285.958 849.162 286.568C849.162 287.068 849.018 287.515 848.73 287.909C848.446 288.303 848.048 288.614 847.537 288.841C847.026 289.068 846.431 289.182 845.753 289.182C844.863 289.182 844.126 288.989 843.543 288.602C842.959 288.216 842.59 287.652 842.435 286.909L843.707 286.591C843.829 287.061 844.058 287.413 844.395 287.648C844.736 287.883 845.181 288 845.73 288C846.355 288 846.851 287.867 847.219 287.602C847.59 287.333 847.776 287.011 847.776 286.636C847.776 286.333 847.67 286.08 847.457 285.875C847.245 285.667 846.92 285.511 846.48 285.409L845.026 285.068C844.226 284.879 843.639 284.585 843.264 284.188C842.893 283.786 842.707 283.284 842.707 282.682C842.707 282.189 842.846 281.754 843.122 281.375C843.402 280.996 843.783 280.699 844.264 280.483C844.749 280.267 845.298 280.159 845.912 280.159C846.776 280.159 847.454 280.348 847.946 280.727C848.442 281.106 848.795 281.606 849.003 282.227ZM857.362 282.227L856.158 282.568C856.082 282.367 855.97 282.172 855.822 281.983C855.679 281.79 855.482 281.631 855.232 281.506C854.982 281.381 854.661 281.318 854.271 281.318C853.737 281.318 853.292 281.441 852.936 281.688C852.584 281.93 852.408 282.239 852.408 282.614C852.408 282.947 852.529 283.21 852.771 283.403C853.014 283.597 853.393 283.758 853.908 283.886L855.203 284.205C855.983 284.394 856.565 284.684 856.947 285.074C857.33 285.46 857.521 285.958 857.521 286.568C857.521 287.068 857.377 287.515 857.089 287.909C856.805 288.303 856.408 288.614 855.896 288.841C855.385 289.068 854.79 289.182 854.112 289.182C853.222 289.182 852.485 288.989 851.902 288.602C851.319 288.216 850.949 287.652 850.794 286.909L852.067 286.591C852.188 287.061 852.417 287.413 852.754 287.648C853.095 287.883 853.54 288 854.089 288C854.714 288 855.211 287.867 855.578 287.602C855.949 287.333 856.135 287.011 856.135 286.636C856.135 286.333 856.029 286.08 855.817 285.875C855.605 285.667 855.279 285.511 854.839 285.409L853.385 285.068C852.586 284.879 851.999 284.585 851.624 284.188C851.252 283.786 851.067 283.284 851.067 282.682C851.067 282.189 851.205 281.754 851.482 281.375C851.762 280.996 852.143 280.699 852.624 280.483C853.108 280.267 853.658 280.159 854.271 280.159C855.135 280.159 855.813 280.348 856.305 280.727C856.802 281.106 857.154 281.606 857.362 282.227ZM861.517 289L858.858 280.273H860.267L862.153 286.955H862.244L864.108 280.273H865.54L867.381 286.932H867.472L869.358 280.273H870.767L868.108 289H866.79L864.881 282.295H864.744L862.835 289H861.517ZM875.788 289.182C875 289.182 874.309 288.994 873.714 288.619C873.124 288.244 872.661 287.72 872.328 287.045C871.999 286.371 871.834 285.583 871.834 284.682C871.834 283.773 871.999 282.979 872.328 282.301C872.661 281.623 873.124 281.097 873.714 280.722C874.309 280.347 875 280.159 875.788 280.159C876.576 280.159 877.266 280.347 877.857 280.722C878.451 281.097 878.913 281.623 879.243 282.301C879.576 282.979 879.743 283.773 879.743 284.682C879.743 285.583 879.576 286.371 879.243 287.045C878.913 287.72 878.451 288.244 877.857 288.619C877.266 288.994 876.576 289.182 875.788 289.182ZM875.788 287.977C876.387 287.977 876.879 287.824 877.266 287.517C877.652 287.21 877.938 286.807 878.124 286.307C878.309 285.807 878.402 285.265 878.402 284.682C878.402 284.098 878.309 283.555 878.124 283.051C877.938 282.547 877.652 282.14 877.266 281.83C876.879 281.519 876.387 281.364 875.788 281.364C875.19 281.364 874.697 281.519 874.311 281.83C873.925 282.14 873.639 282.547 873.453 283.051C873.268 283.555 873.175 284.098 873.175 284.682C873.175 285.265 873.268 285.807 873.453 286.307C873.639 286.807 873.925 287.21 874.311 287.517C874.697 287.824 875.19 287.977 875.788 287.977ZM881.79 289V280.273H883.085V281.591H883.176C883.335 281.159 883.623 280.809 884.04 280.54C884.456 280.271 884.926 280.136 885.449 280.136C885.547 280.136 885.67 280.138 885.818 280.142C885.966 280.146 886.078 280.152 886.153 280.159V281.523C886.108 281.511 886.004 281.494 885.841 281.472C885.682 281.445 885.513 281.432 885.335 281.432C884.911 281.432 884.532 281.521 884.199 281.699C883.869 281.873 883.608 282.116 883.415 282.426C883.225 282.733 883.131 283.083 883.131 283.477V289H881.79ZM890.773 289.182C890.045 289.182 889.403 288.998 888.847 288.631C888.29 288.259 887.854 287.737 887.54 287.062C887.225 286.384 887.068 285.583 887.068 284.659C887.068 283.742 887.225 282.947 887.54 282.273C887.854 281.598 888.292 281.078 888.852 280.71C889.413 280.343 890.061 280.159 890.795 280.159C891.364 280.159 891.813 280.254 892.142 280.443C892.475 280.629 892.729 280.841 892.903 281.08C893.081 281.314 893.22 281.508 893.318 281.659H893.432V277.364H894.773V289H893.477V287.659H893.318C893.22 287.818 893.08 288.019 892.898 288.261C892.716 288.5 892.456 288.714 892.119 288.903C891.782 289.089 891.333 289.182 890.773 289.182ZM890.955 287.977C891.492 287.977 891.947 287.837 892.318 287.557C892.689 287.273 892.972 286.881 893.165 286.381C893.358 285.877 893.455 285.295 893.455 284.636C893.455 283.985 893.36 283.415 893.17 282.926C892.981 282.434 892.701 282.051 892.33 281.778C891.958 281.502 891.5 281.364 890.955 281.364C890.386 281.364 889.913 281.509 889.534 281.801C889.159 282.089 888.877 282.481 888.688 282.977C888.502 283.47 888.409 284.023 888.409 284.636C888.409 285.258 888.504 285.822 888.693 286.33C888.886 286.833 889.17 287.235 889.545 287.534C889.924 287.83 890.394 287.977 890.955 287.977Z" fill="white"/>
<rect x="920" y="266" width="240" height="36" rx="4" fill="#FFFDF7" fill-opacity="0.1"/>
<rect x="786" y="542" width="36" height="36" fill="$primaryColor1"/>
<rect x="832" y="542" width="36" height="36" fill="$primaryColor1"/>
<rect x="877" y="542" width="36" height="36" fill="$primaryColor1"/>
<rect x="922" y="542" width="36" height="36" fill="$primaryColor1"/>
<rect x="648" y="588" width="36" height="36" fill="$primaryColor1"/>
<rect x="694.5" y="496.5" width="35" height="35" stroke="#FFFDF7"/>
<rect x="740.5" y="496.5" width="35" height="35" stroke="#FFFDF7"/>
<rect x="786.5" y="496.5" width="35" height="35" stroke="#FFFDF7"/>
<rect x="832.5" y="496.5" width="35" height="35" stroke="#FFFDF7"/>
<rect x="877.5" y="496.5" width="35" height="35" stroke="#FFFDF7"/>
<rect x="922.5" y="496.5" width="35" height="35" stroke="#FFFDF7"/>
<rect x="648.5" y="496.5" width="35" height="35" stroke="#FFFDF7"/>
<rect x="694.5" y="542.5" width="35" height="35" stroke="#FFFDF7"/>
<rect x="740" y="542" width="36" height="36" fill="$primaryColor1"/>
<rect x="648.5" y="542.5" width="35" height="35" stroke="#FFFDF7"/>
<rect x="694.5" y="588.5" width="35" height="35" stroke="#FFFDF7"/>
<rect x="740.5" y="588.5" width="35" height="35" stroke="#FFFDF7"/>
<rect x="786.5" y="588.5" width="35" height="35" stroke="#FFFDF7"/>
<rect x="832.5" y="588.5" width="35" height="35" stroke="#FFFDF7"/>
<rect x="877.5" y="588.5" width="35" height="35" stroke="#FFFDF7"/>
<rect x="922.5" y="588.5" width="35" height="35" stroke="#FFFDF7"/>
<rect x="694.5" y="634.5" width="35" height="35" stroke="#FFFDF7"/>
<rect x="740.5" y="634.5" width="35" height="35" stroke="#FFFDF7"/>
<rect x="786.5" y="634.5" width="35" height="35" stroke="#FFFDF7"/>
<rect x="832.5" y="634.5" width="35" height="35" stroke="#FFFDF7"/>
<rect x="877.5" y="634.5" width="35" height="35" stroke="#FFFDF7"/>
<rect x="922.5" y="634.5" width="35" height="35" stroke="#FFFDF7"/>
<rect x="648.5" y="634.5" width="35" height="35" stroke="#FFFDF7"/>
<rect x="694.5" y="680.5" width="35" height="35" stroke="#FFFDF7"/>
<rect x="740.5" y="680.5" width="35" height="35" stroke="#FFFDF7"/>
<rect x="786.5" y="680.5" width="35" height="35" stroke="#FFFDF7"/>
<rect x="832.5" y="680.5" width="35" height="35" stroke="#FFFDF7"/>
<rect x="877.5" y="680.5" width="35" height="35" stroke="#FFFDF7"/>
<rect x="922.5" y="680.5" width="35" height="35" stroke="#FFFDF7"/>
<rect x="648.5" y="680.5" width="35" height="35" stroke="#FFFDF7"/>
<rect x="694.5" y="726.5" width="35" height="35" stroke="#FFFDF7"/>
<rect x="740.5" y="726.5" width="35" height="35" stroke="#FFFDF7"/>
<rect x="786.5" y="726.5" width="35" height="35" stroke="#FFFDF7"/>
<rect x="832.5" y="726.5" width="35" height="35" stroke="#FFFDF7"/>
<rect x="877.5" y="726.5" width="35" height="35" stroke="#FFFDF7"/>
<rect x="922.5" y="726.5" width="35" height="35" stroke="#FFFDF7"/>
<rect x="648.5" y="726.5" width="35" height="35" stroke="#FFFDF7"/>
<path d="M659.438 462.909H661.835L666.003 473.085H666.156L670.324 462.909H672.721V476H670.842V466.527H670.72L666.859 475.981H665.3L661.439 466.521H661.317V476H659.438V462.909Z" fill="white"/>
<path d="M701.793 464.609V462.909H711.924V464.609H707.839V476H705.871V464.609H701.793ZM718.893 471.928V466.182H720.811V476H718.931V474.3H718.829C718.603 474.824 718.241 475.261 717.742 475.61C717.248 475.955 716.632 476.128 715.895 476.128C715.264 476.128 714.706 475.989 714.22 475.712C713.739 475.431 713.36 475.016 713.083 474.466C712.81 473.916 712.673 473.237 712.673 472.427V466.182H714.585V472.197C714.585 472.866 714.77 473.398 715.141 473.795C715.512 474.191 715.993 474.389 716.585 474.389C716.943 474.389 717.299 474.3 717.653 474.121C718.011 473.942 718.307 473.671 718.541 473.309C718.78 472.947 718.897 472.487 718.893 471.928Z" fill="white"/>
<path d="M753.001 476L749.371 462.909H751.448L753.999 473.047H754.12L756.773 462.909H758.831L761.484 473.053H761.605L764.149 462.909H766.233L762.596 476H760.608L757.853 466.195H757.751L754.996 476H753.001Z" fill="white"/>
<path d="M793.793 464.609V462.909H803.924V464.609H799.839V476H797.871V464.609H793.793ZM807.921 470.17V476H806.009V462.909H807.895V467.78H808.017C808.247 467.251 808.598 466.832 809.071 466.521C809.544 466.21 810.162 466.054 810.925 466.054C811.598 466.054 812.186 466.192 812.689 466.469C813.196 466.746 813.588 467.16 813.865 467.71C814.146 468.255 814.287 468.937 814.287 469.755V476H812.376V469.985C812.376 469.265 812.191 468.707 811.82 468.31C811.449 467.91 810.933 467.71 810.273 467.71C809.821 467.71 809.416 467.805 809.058 467.997C808.705 468.189 808.426 468.47 808.221 468.841C808.021 469.207 807.921 469.651 807.921 470.17Z" fill="white"/>
<path d="M846.438 476V462.909H854.556V464.609H848.413V468.598H853.974V470.292H848.413V476H846.438Z" fill="white"/>
<path d="M892.578 466.348C892.51 465.743 892.229 465.274 891.734 464.942C891.24 464.605 890.618 464.437 889.868 464.437C889.331 464.437 888.866 464.522 888.474 464.692C888.082 464.859 887.778 465.089 887.56 465.383C887.347 465.673 887.241 466.003 887.241 466.374C887.241 466.685 887.313 466.953 887.458 467.179C887.607 467.405 887.801 467.594 888.04 467.748C888.283 467.897 888.543 468.023 888.82 468.125C889.097 468.223 889.363 468.304 889.619 468.368L890.897 468.7C891.315 468.803 891.743 468.941 892.182 469.116C892.621 469.29 893.028 469.521 893.403 469.806C893.778 470.092 894.08 470.445 894.31 470.867C894.545 471.289 894.662 471.794 894.662 472.382C894.662 473.124 894.47 473.782 894.087 474.357C893.707 474.933 893.156 475.386 892.431 475.719C891.711 476.051 890.839 476.217 889.817 476.217C888.837 476.217 887.989 476.062 887.273 475.751C886.557 475.44 885.996 474.999 885.592 474.428C885.187 473.852 884.963 473.17 884.92 472.382H886.902C886.94 472.855 887.094 473.249 887.362 473.565C887.635 473.876 887.982 474.108 888.404 474.261C888.83 474.411 889.297 474.485 889.804 474.485C890.362 474.485 890.859 474.398 891.293 474.223C891.732 474.044 892.077 473.797 892.329 473.482C892.58 473.162 892.706 472.789 892.706 472.363C892.706 471.975 892.595 471.658 892.374 471.411C892.156 471.163 891.86 470.959 891.485 470.797C891.114 470.635 890.695 470.492 890.226 470.369L888.679 469.947C887.631 469.661 886.8 469.241 886.186 468.688C885.577 468.134 885.272 467.401 885.272 466.489C885.272 465.734 885.477 465.076 885.886 464.513C886.295 463.951 886.849 463.514 887.548 463.203C888.246 462.888 889.035 462.73 889.913 462.73C890.799 462.73 891.581 462.886 892.259 463.197C892.94 463.508 893.477 463.936 893.869 464.482C894.261 465.023 894.466 465.645 894.483 466.348H892.578ZM899.726 476.217C899.104 476.217 898.541 476.102 898.039 475.872C897.536 475.638 897.137 475.299 896.843 474.856C896.553 474.413 896.409 473.869 896.409 473.226C896.409 472.672 896.515 472.216 896.728 471.858C896.941 471.5 897.229 471.217 897.591 471.008C897.953 470.799 898.358 470.641 898.806 470.535C899.253 470.428 899.709 470.347 900.173 470.292C900.762 470.224 901.239 470.168 901.605 470.126C901.972 470.079 902.238 470.004 902.404 469.902C902.57 469.8 902.654 469.634 902.654 469.403V469.359C902.654 468.8 902.496 468.368 902.181 468.061C901.869 467.754 901.405 467.601 900.787 467.601C900.144 467.601 899.637 467.744 899.266 468.029C898.899 468.31 898.646 468.624 898.505 468.969L896.709 468.56C896.922 467.963 897.233 467.482 897.642 467.115C898.056 466.744 898.531 466.476 899.068 466.31C899.605 466.139 900.169 466.054 900.762 466.054C901.154 466.054 901.569 466.101 902.008 466.195C902.451 466.284 902.865 466.45 903.248 466.693C903.636 466.936 903.953 467.283 904.2 467.735C904.448 468.183 904.571 468.764 904.571 469.48V476H902.705V474.658H902.628C902.504 474.905 902.319 475.148 902.072 475.386C901.825 475.625 901.507 475.823 901.119 475.981C900.732 476.138 900.267 476.217 899.726 476.217ZM900.142 474.683C900.67 474.683 901.122 474.579 901.497 474.37C901.876 474.161 902.164 473.888 902.36 473.552C902.56 473.211 902.66 472.847 902.66 472.459V471.193C902.592 471.261 902.46 471.325 902.264 471.385C902.072 471.44 901.852 471.489 901.605 471.532C901.358 471.57 901.117 471.607 900.883 471.641C900.649 471.67 900.453 471.696 900.295 471.717C899.924 471.764 899.585 471.843 899.279 471.954C898.976 472.065 898.733 472.224 898.55 472.433C898.371 472.638 898.281 472.911 898.281 473.251C898.281 473.724 898.456 474.082 898.806 474.325C899.155 474.564 899.6 474.683 900.142 474.683Z" fill="white"/>
<path d="M936.578 466.348C936.51 465.743 936.229 465.274 935.734 464.942C935.24 464.605 934.618 464.437 933.868 464.437C933.331 464.437 932.866 464.522 932.474 464.692C932.082 464.859 931.778 465.089 931.56 465.383C931.347 465.673 931.241 466.003 931.241 466.374C931.241 466.685 931.313 466.953 931.458 467.179C931.607 467.405 931.801 467.594 932.04 467.748C932.283 467.897 932.543 468.023 932.82 468.125C933.097 468.223 933.363 468.304 933.619 468.368L934.897 468.7C935.315 468.803 935.743 468.941 936.182 469.116C936.621 469.29 937.028 469.521 937.403 469.806C937.778 470.092 938.08 470.445 938.31 470.867C938.545 471.289 938.662 471.794 938.662 472.382C938.662 473.124 938.47 473.782 938.087 474.357C937.707 474.933 937.156 475.386 936.431 475.719C935.711 476.051 934.839 476.217 933.817 476.217C932.837 476.217 931.989 476.062 931.273 475.751C930.557 475.44 929.996 474.999 929.592 474.428C929.187 473.852 928.963 473.17 928.92 472.382H930.902C930.94 472.855 931.094 473.249 931.362 473.565C931.635 473.876 931.982 474.108 932.404 474.261C932.83 474.411 933.297 474.485 933.804 474.485C934.362 474.485 934.859 474.398 935.293 474.223C935.732 474.044 936.077 473.797 936.329 473.482C936.58 473.162 936.706 472.789 936.706 472.363C936.706 471.975 936.595 471.658 936.374 471.411C936.156 471.163 935.86 470.959 935.485 470.797C935.114 470.635 934.695 470.492 934.226 470.369L932.679 469.947C931.631 469.661 930.8 469.241 930.186 468.688C929.577 468.134 929.272 467.401 929.272 466.489C929.272 465.734 929.477 465.076 929.886 464.513C930.295 463.951 930.849 463.514 931.548 463.203C932.246 462.888 933.035 462.73 933.913 462.73C934.799 462.73 935.581 462.886 936.259 463.197C936.94 463.508 937.477 463.936 937.869 464.482C938.261 465.023 938.466 465.645 938.483 466.348H936.578ZM947.088 471.928V466.182H949.006V476H947.127V474.3H947.024C946.798 474.824 946.436 475.261 945.938 475.61C945.443 475.955 944.828 476.128 944.09 476.128C943.46 476.128 942.901 475.989 942.416 475.712C941.934 475.431 941.555 475.016 941.278 474.466C941.005 473.916 940.869 473.237 940.869 472.427V466.182H942.78V472.197C942.78 472.866 942.965 473.398 943.336 473.795C943.707 474.191 944.188 474.389 944.781 474.389C945.139 474.389 945.494 474.3 945.848 474.121C946.206 473.942 946.502 473.671 946.737 473.309C946.975 472.947 947.093 472.487 947.088 471.928Z" fill="white"/>
<path d="M663.75 413.5L656.25 406L663.75 398.5" stroke="#FFFDF7" stroke-width="1.5" stroke-linecap="round" stroke-linejoin="round"/>
<path d="M942.25 398.5L949.75 406L942.25 413.5" stroke="#FFFDF7" stroke-width="1.5" stroke-linecap="round" stroke-linejoin="round"/>
<path d="M1153.15 461V449.364H1160.6V451.131H1155.26V454.29H1160.09V456.057H1155.26V461H1153.15ZM1162.31 461V452.273H1164.3V453.727H1164.39C1164.55 453.223 1164.82 452.835 1165.21 452.562C1165.6 452.286 1166.05 452.148 1166.55 452.148C1166.66 452.148 1166.79 452.153 1166.93 452.165C1167.07 452.172 1167.19 452.186 1167.28 452.205V454.097C1167.2 454.066 1167.06 454.04 1166.87 454.017C1166.68 453.991 1166.5 453.977 1166.33 453.977C1165.95 453.977 1165.62 454.059 1165.32 454.222C1165.02 454.381 1164.79 454.602 1164.62 454.886C1164.45 455.17 1164.36 455.498 1164.36 455.869V461H1162.31ZM1172.1 461.17C1171.25 461.17 1170.51 460.983 1169.88 460.608C1169.26 460.233 1168.77 459.708 1168.43 459.034C1168.09 458.36 1167.92 457.572 1167.92 456.67C1167.92 455.769 1168.09 454.979 1168.43 454.301C1168.77 453.623 1169.26 453.097 1169.88 452.722C1170.51 452.347 1171.25 452.159 1172.1 452.159C1172.95 452.159 1173.69 452.347 1174.31 452.722C1174.94 453.097 1175.42 453.623 1175.76 454.301C1176.11 454.979 1176.28 455.769 1176.28 456.67C1176.28 457.572 1176.11 458.36 1175.76 459.034C1175.42 459.708 1174.94 460.233 1174.31 460.608C1173.69 460.983 1172.95 461.17 1172.1 461.17ZM1172.11 459.523C1172.57 459.523 1172.96 459.396 1173.27 459.142C1173.58 458.884 1173.81 458.54 1173.96 458.108C1174.12 457.676 1174.19 457.195 1174.19 456.665C1174.19 456.131 1174.12 455.648 1173.96 455.216C1173.81 454.78 1173.58 454.434 1173.27 454.176C1172.96 453.919 1172.57 453.79 1172.11 453.79C1171.64 453.79 1171.24 453.919 1170.93 454.176C1170.62 454.434 1170.38 454.78 1170.23 455.216C1170.08 455.648 1170 456.131 1170 456.665C1170 457.195 1170.08 457.676 1170.23 458.108C1170.38 458.54 1170.62 458.884 1170.93 459.142C1171.24 459.396 1171.64 459.523 1172.11 459.523ZM1178.03 461V452.273H1179.99V453.756H1180.09C1180.28 453.256 1180.58 452.866 1181 452.585C1181.42 452.301 1181.92 452.159 1182.5 452.159C1183.09 452.159 1183.59 452.303 1184 452.591C1184.41 452.875 1184.69 453.263 1184.86 453.756H1184.95C1185.14 453.271 1185.47 452.884 1185.93 452.597C1186.39 452.305 1186.94 452.159 1187.57 452.159C1188.37 452.159 1189.03 452.413 1189.54 452.92C1190.04 453.428 1190.3 454.169 1190.3 455.142V461H1188.24V455.46C1188.24 454.919 1188.09 454.523 1187.8 454.273C1187.52 454.019 1187.16 453.892 1186.75 453.892C1186.25 453.892 1185.86 454.047 1185.58 454.358C1185.31 454.665 1185.17 455.064 1185.17 455.557V461H1183.15V455.375C1183.15 454.924 1183.01 454.564 1182.74 454.295C1182.47 454.027 1182.12 453.892 1181.68 453.892C1181.39 453.892 1181.12 453.968 1180.88 454.119C1180.64 454.267 1180.44 454.477 1180.3 454.75C1180.15 455.019 1180.08 455.333 1180.08 455.693V461H1178.03Z" fill="#FFFDF7"/>
<rect x="1072" y="474" width="200" height="36" rx="4" fill="#FFFDF7" fill-opacity="0.1"/>
<path d="M1162.64 551.131V549.364H1171.92V551.131H1168.32V561H1166.23V551.131H1162.64ZM1176.16 561.17C1175.31 561.17 1174.57 560.983 1173.94 560.608C1173.32 560.233 1172.83 559.708 1172.49 559.034C1172.15 558.36 1171.98 557.572 1171.98 556.67C1171.98 555.769 1172.15 554.979 1172.49 554.301C1172.83 553.623 1173.32 553.097 1173.94 552.722C1174.57 552.347 1175.31 552.159 1176.16 552.159C1177.01 552.159 1177.75 552.347 1178.38 552.722C1179 553.097 1179.48 553.623 1179.83 554.301C1180.17 554.979 1180.34 555.769 1180.34 556.67C1180.34 557.572 1180.17 558.36 1179.83 559.034C1179.48 559.708 1179 560.233 1178.38 560.608C1177.75 560.983 1177.01 561.17 1176.16 561.17ZM1176.17 559.523C1176.63 559.523 1177.02 559.396 1177.33 559.142C1177.64 558.884 1177.87 558.54 1178.02 558.108C1178.18 557.676 1178.26 557.195 1178.26 556.665C1178.26 556.131 1178.18 555.648 1178.02 555.216C1177.87 554.78 1177.64 554.434 1177.33 554.176C1177.02 553.919 1176.63 553.79 1176.17 553.79C1175.7 553.79 1175.3 553.919 1174.99 554.176C1174.68 554.434 1174.45 554.78 1174.29 555.216C1174.14 555.648 1174.06 556.131 1174.06 556.665C1174.06 557.195 1174.14 557.676 1174.29 558.108C1174.45 558.54 1174.68 558.884 1174.99 559.142C1175.3 559.396 1175.7 559.523 1176.17 559.523Z" fill="#FFFDF7"/>
<rect x="1072" y="574" width="200" height="36" rx="4" fill="#FFFDF7" fill-opacity="0.1"/>
<path d="M1131.64 651.131V649.364H1140.92V651.131H1137.32V661H1135.23V651.131H1131.64ZM1142.62 661V652.273H1144.68V661H1142.62ZM1143.65 651.034C1143.33 651.034 1143.05 650.926 1142.81 650.71C1142.58 650.491 1142.46 650.227 1142.46 649.92C1142.46 649.61 1142.58 649.347 1142.81 649.131C1143.05 648.911 1143.33 648.801 1143.65 648.801C1143.98 648.801 1144.26 648.911 1144.49 649.131C1144.73 649.347 1144.85 649.61 1144.85 649.92C1144.85 650.227 1144.73 650.491 1144.49 650.71C1144.26 650.926 1143.98 651.034 1143.65 651.034ZM1146.79 661V652.273H1148.76V653.756H1148.86C1149.04 653.256 1149.34 652.866 1149.76 652.585C1150.18 652.301 1150.69 652.159 1151.27 652.159C1151.86 652.159 1152.36 652.303 1152.76 652.591C1153.17 652.875 1153.46 653.263 1153.63 653.756H1153.72C1153.91 653.271 1154.24 652.884 1154.69 652.597C1155.16 652.305 1155.7 652.159 1156.34 652.159C1157.14 652.159 1157.79 652.413 1158.3 652.92C1158.81 653.428 1159.06 654.169 1159.06 655.142V661H1157V655.46C1157 654.919 1156.86 654.523 1156.57 654.273C1156.28 654.019 1155.93 653.892 1155.51 653.892C1155.02 653.892 1154.63 654.047 1154.35 654.358C1154.07 654.665 1153.93 655.064 1153.93 655.557V661H1151.92V655.375C1151.92 654.924 1151.78 654.564 1151.51 654.295C1151.24 654.027 1150.89 653.892 1150.45 653.892C1150.15 653.892 1149.89 653.968 1149.64 654.119C1149.4 654.267 1149.21 654.477 1149.06 654.75C1148.92 655.019 1148.85 655.333 1148.85 655.693V661H1146.79ZM1165.01 661.17C1164.14 661.17 1163.38 660.989 1162.75 660.625C1162.11 660.258 1161.63 659.739 1161.29 659.068C1160.95 658.394 1160.78 657.6 1160.78 656.688C1160.78 655.79 1160.95 655.002 1161.29 654.324C1161.63 653.642 1162.11 653.112 1162.73 652.733C1163.35 652.35 1164.07 652.159 1164.91 652.159C1165.44 652.159 1165.95 652.246 1166.43 652.42C1166.91 652.591 1167.33 652.856 1167.7 653.216C1168.07 653.576 1168.36 654.034 1168.58 654.591C1168.79 655.144 1168.89 655.803 1168.89 656.568V657.199H1161.74V655.812H1166.92C1166.92 655.419 1166.83 655.068 1166.67 654.761C1166.5 654.451 1166.27 654.206 1165.97 654.028C1165.67 653.85 1165.33 653.761 1164.93 653.761C1164.51 653.761 1164.14 653.864 1163.83 654.068C1163.51 654.269 1163.26 654.534 1163.08 654.864C1162.91 655.189 1162.82 655.547 1162.82 655.938V657.148C1162.82 657.655 1162.91 658.091 1163.09 658.455C1163.28 658.814 1163.54 659.091 1163.87 659.284C1164.21 659.473 1164.6 659.568 1165.04 659.568C1165.34 659.568 1165.61 659.527 1165.86 659.443C1166.1 659.356 1166.31 659.229 1166.49 659.062C1166.66 658.896 1166.8 658.689 1166.89 658.443L1168.81 658.659C1168.69 659.167 1168.46 659.61 1168.12 659.989C1167.78 660.364 1167.35 660.655 1166.82 660.864C1166.29 661.068 1165.69 661.17 1165.01 661.17ZM1174.48 661V659.688L1180.44 651.131H1174.44V649.364H1183.06V650.676L1177.1 659.233H1183.09V661H1174.48ZM1188.85 661.17C1188 661.17 1187.26 660.983 1186.63 660.608C1186.01 660.233 1185.52 659.708 1185.18 659.034C1184.84 658.36 1184.67 657.572 1184.67 656.67C1184.67 655.769 1184.84 654.979 1185.18 654.301C1185.52 653.623 1186.01 653.097 1186.63 652.722C1187.26 652.347 1188 652.159 1188.85 652.159C1189.7 652.159 1190.44 652.347 1191.06 652.722C1191.69 653.097 1192.17 653.623 1192.51 654.301C1192.86 654.979 1193.03 655.769 1193.03 656.67C1193.03 657.572 1192.86 658.36 1192.51 659.034C1192.17 659.708 1191.69 660.233 1191.06 660.608C1190.44 660.983 1189.7 661.17 1188.85 661.17ZM1188.86 659.523C1189.32 659.523 1189.71 659.396 1190.02 659.142C1190.33 658.884 1190.56 658.54 1190.71 658.108C1190.87 657.676 1190.94 657.195 1190.94 656.665C1190.94 656.131 1190.87 655.648 1190.71 655.216C1190.56 654.78 1190.33 654.434 1190.02 654.176C1189.71 653.919 1189.32 653.79 1188.86 653.79C1188.39 653.79 1187.99 653.919 1187.68 654.176C1187.37 654.434 1187.13 654.78 1186.98 655.216C1186.83 655.648 1186.75 656.131 1186.75 656.665C1186.75 657.195 1186.83 657.676 1186.98 658.108C1187.13 658.54 1187.37 658.884 1187.68 659.142C1187.99 659.396 1188.39 659.523 1188.86 659.523ZM1196.83 655.886V661H1194.78V652.273H1196.74V653.756H1196.84C1197.04 653.267 1197.36 652.879 1197.8 652.591C1198.25 652.303 1198.79 652.159 1199.45 652.159C1200.05 652.159 1200.57 652.288 1201.02 652.545C1201.47 652.803 1201.82 653.176 1202.07 653.665C1202.32 654.153 1202.44 654.746 1202.43 655.443V661H1200.38V655.761C1200.38 655.178 1200.23 654.722 1199.92 654.392C1199.62 654.062 1199.21 653.898 1198.68 653.898C1198.32 653.898 1198 653.977 1197.72 654.136C1197.44 654.292 1197.22 654.517 1197.07 654.812C1196.91 655.108 1196.83 655.466 1196.83 655.886ZM1208.39 661.17C1207.51 661.17 1206.76 660.989 1206.12 660.625C1205.49 660.258 1205 659.739 1204.66 659.068C1204.32 658.394 1204.15 657.6 1204.15 656.688C1204.15 655.79 1204.32 655.002 1204.66 654.324C1205.01 653.642 1205.49 653.112 1206.11 652.733C1206.72 652.35 1207.45 652.159 1208.28 652.159C1208.82 652.159 1209.33 652.246 1209.8 652.42C1210.29 652.591 1210.71 652.856 1211.08 653.216C1211.45 653.576 1211.74 654.034 1211.95 654.591C1212.16 655.144 1212.27 655.803 1212.27 656.568V657.199H1205.12V655.812H1210.3C1210.29 655.419 1210.21 655.068 1210.04 654.761C1209.88 654.451 1209.64 654.206 1209.34 654.028C1209.05 653.85 1208.7 653.761 1208.31 653.761C1207.89 653.761 1207.52 653.864 1207.2 654.068C1206.88 654.269 1206.64 654.534 1206.46 654.864C1206.28 655.189 1206.19 655.547 1206.19 655.938V657.148C1206.19 657.655 1206.28 658.091 1206.47 658.455C1206.65 658.814 1206.91 659.091 1207.25 659.284C1207.58 659.473 1207.97 659.568 1208.42 659.568C1208.72 659.568 1208.99 659.527 1209.23 659.443C1209.47 659.356 1209.68 659.229 1209.86 659.062C1210.04 658.896 1210.17 658.689 1210.26 658.443L1212.18 658.659C1212.06 659.167 1211.83 659.61 1211.49 659.989C1211.15 660.364 1210.72 660.655 1210.2 660.864C1209.67 661.068 1209.07 661.17 1208.39 661.17Z" fill="#FFFDF7"/>
<rect x="1072" y="674" width="200" height="36" rx="4" fill="#FFFDF7" fill-opacity="0.1"/>
<path d="M781.989 407.455C781.989 408.865 781.724 410.073 781.196 411.079C780.672 412.08 779.956 412.847 779.048 413.38C778.145 413.913 777.12 414.179 775.974 414.179C774.827 414.179 773.8 413.913 772.893 413.38C771.989 412.843 771.273 412.074 770.745 411.072C770.221 410.067 769.959 408.861 769.959 407.455C769.959 406.044 770.221 404.838 770.745 403.837C771.273 402.831 771.989 402.062 772.893 401.529C773.8 400.996 774.827 400.73 775.974 400.73C777.12 400.73 778.145 400.996 779.048 401.529C779.956 402.062 780.672 402.831 781.196 403.837C781.724 404.838 781.989 406.044 781.989 407.455ZM779.604 407.455C779.604 406.462 779.449 405.624 779.138 404.942C778.831 404.256 778.405 403.739 777.859 403.389C777.314 403.036 776.685 402.859 775.974 402.859C775.262 402.859 774.634 403.036 774.088 403.389C773.543 403.739 773.114 404.256 772.803 404.942C772.496 405.624 772.343 406.462 772.343 407.455C772.343 408.447 772.496 409.287 772.803 409.973C773.114 410.655 773.543 411.173 774.088 411.526C774.634 411.876 775.262 412.05 775.974 412.05C776.685 412.05 777.314 411.876 777.859 411.526C778.405 411.173 778.831 410.655 779.138 409.973C779.449 409.287 779.604 408.447 779.604 407.455ZM788.411 414.192C787.431 414.192 786.589 413.977 785.886 413.546C785.187 413.116 784.648 412.521 784.269 411.763C783.894 411 783.706 410.122 783.706 409.129C783.706 408.132 783.898 407.252 784.282 406.489C784.665 405.722 785.206 405.126 785.905 404.7C786.608 404.269 787.439 404.054 788.398 404.054C789.195 404.054 789.9 404.201 790.514 404.495C791.132 404.785 791.624 405.196 791.991 405.729C792.357 406.257 792.566 406.875 792.617 407.582H790.405C790.316 407.109 790.103 406.715 789.766 406.4C789.434 406.08 788.988 405.92 788.43 405.92C787.957 405.92 787.542 406.048 787.184 406.304C786.826 406.555 786.547 406.918 786.346 407.391C786.15 407.864 786.052 408.43 786.052 409.091C786.052 409.76 786.15 410.335 786.346 410.817C786.542 411.294 786.817 411.663 787.171 411.923C787.529 412.178 787.949 412.306 788.43 412.306C788.771 412.306 789.076 412.242 789.344 412.114C789.617 411.982 789.845 411.793 790.028 411.545C790.211 411.298 790.337 410.998 790.405 410.644H792.617C792.562 411.339 792.357 411.955 792.003 412.491C791.65 413.024 791.168 413.442 790.559 413.744C789.949 414.043 789.233 414.192 788.411 414.192ZM799.42 404.182V405.972H793.776V404.182H799.42ZM795.169 401.83H797.483V411.047C797.483 411.358 797.53 411.597 797.624 411.763C797.722 411.925 797.849 412.036 798.007 412.095C798.165 412.155 798.339 412.185 798.531 412.185C798.676 412.185 798.808 412.174 798.928 412.153C799.051 412.131 799.145 412.112 799.209 412.095L799.599 413.904C799.475 413.947 799.298 413.994 799.068 414.045C798.842 414.096 798.565 414.126 798.237 414.134C797.658 414.151 797.136 414.064 796.671 413.872C796.207 413.676 795.838 413.374 795.565 412.964C795.297 412.555 795.165 412.044 795.169 411.43V401.83ZM805.532 414.192C804.573 414.192 803.742 413.981 803.039 413.559C802.336 413.137 801.791 412.547 801.403 411.788C801.019 411.03 800.828 410.143 800.828 409.129C800.828 408.115 801.019 407.227 801.403 406.464C801.791 405.701 802.336 405.109 803.039 404.687C803.742 404.265 804.573 404.054 805.532 404.054C806.491 404.054 807.322 404.265 808.025 404.687C808.728 405.109 809.271 405.701 809.655 406.464C810.043 407.227 810.237 408.115 810.237 409.129C810.237 410.143 810.043 411.03 809.655 411.788C809.271 412.547 808.728 413.137 808.025 413.559C807.322 413.981 806.491 414.192 805.532 414.192ZM805.545 412.338C806.065 412.338 806.499 412.195 806.849 411.91C807.198 411.62 807.458 411.232 807.629 410.746C807.803 410.261 807.891 409.719 807.891 409.123C807.891 408.522 807.803 407.979 807.629 407.493C807.458 407.003 807.198 406.613 806.849 406.323C806.499 406.033 806.065 405.888 805.545 405.888C805.012 405.888 804.569 406.033 804.215 406.323C803.866 406.613 803.604 407.003 803.429 407.493C803.259 407.979 803.173 408.522 803.173 409.123C803.173 409.719 803.259 410.261 803.429 410.746C803.604 411.232 803.866 411.62 804.215 411.91C804.569 412.195 805.012 412.338 805.545 412.338ZM812.303 414V400.909H814.617V405.805H814.713C814.832 405.567 815 405.313 815.218 405.045C815.435 404.772 815.729 404.54 816.1 404.348C816.471 404.152 816.944 404.054 817.519 404.054C818.277 404.054 818.961 404.248 819.571 404.636C820.184 405.019 820.67 405.588 821.028 406.342C821.39 407.092 821.571 408.013 821.571 409.104C821.571 410.182 821.395 411.098 821.041 411.852C820.687 412.607 820.206 413.182 819.596 413.578C818.987 413.974 818.297 414.173 817.525 414.173C816.963 414.173 816.496 414.079 816.125 413.891C815.755 413.704 815.456 413.478 815.23 413.214C815.009 412.945 814.836 412.692 814.713 412.453H814.578V414H812.303ZM814.572 409.091C814.572 409.726 814.662 410.282 814.841 410.759C815.024 411.237 815.286 411.609 815.627 411.878C815.972 412.142 816.39 412.274 816.88 412.274C817.391 412.274 817.819 412.138 818.164 411.865C818.51 411.588 818.77 411.211 818.944 410.734C819.123 410.252 819.213 409.705 819.213 409.091C819.213 408.482 819.125 407.94 818.951 407.467C818.776 406.994 818.516 406.624 818.171 406.355C817.826 406.087 817.395 405.952 816.88 405.952C816.385 405.952 815.966 406.082 815.62 406.342C815.275 406.602 815.013 406.967 814.834 407.435C814.659 407.904 814.572 408.456 814.572 409.091ZM827.885 414.192C826.901 414.192 826.051 413.987 825.335 413.578C824.623 413.165 824.075 412.581 823.692 411.827C823.308 411.068 823.117 410.175 823.117 409.148C823.117 408.138 823.308 407.252 823.692 406.489C824.08 405.722 824.621 405.126 825.316 404.7C826.01 404.269 826.826 404.054 827.764 404.054C828.369 404.054 828.94 404.152 829.477 404.348C830.018 404.54 830.495 404.838 830.909 405.243C831.326 405.648 831.654 406.163 831.893 406.79C832.132 407.412 832.251 408.153 832.251 409.014V409.724H824.203V408.164H830.033C830.029 407.721 829.933 407.327 829.745 406.982C829.558 406.632 829.296 406.357 828.959 406.157C828.627 405.957 828.239 405.857 827.796 405.857C827.323 405.857 826.907 405.972 826.549 406.202C826.191 406.428 825.912 406.726 825.712 407.097C825.516 407.463 825.416 407.866 825.411 408.305V409.666C825.411 410.237 825.516 410.727 825.725 411.136C825.933 411.541 826.225 411.852 826.6 412.07C826.975 412.283 827.414 412.389 827.917 412.389C828.254 412.389 828.558 412.342 828.831 412.249C829.104 412.151 829.34 412.008 829.541 411.82C829.741 411.633 829.892 411.401 829.994 411.124L832.155 411.366C832.019 411.937 831.759 412.436 831.375 412.862C830.996 413.284 830.51 413.612 829.918 413.847C829.325 414.077 828.648 414.192 827.885 414.192ZM834.208 414V404.182H836.452V405.818H836.554C836.733 405.251 837.04 404.815 837.475 404.508C837.914 404.197 838.414 404.041 838.977 404.041C839.105 404.041 839.248 404.048 839.405 404.06C839.567 404.069 839.701 404.084 839.808 404.105V406.234C839.71 406.2 839.554 406.17 839.341 406.144C839.132 406.114 838.93 406.099 838.734 406.099C838.312 406.099 837.933 406.191 837.596 406.374C837.264 406.553 837.002 406.803 836.81 407.122C836.618 407.442 836.522 407.81 836.522 408.228V414H834.208Z" fill="url(#paint5_linear_233_198)"/>
</g>
<defs>
<linearGradient id="paint0_linear_233_198" x1="960" y1="107.5" x2="885.524" y2="1074.26" gradientUnits="userSpaceOnUse">
<stop stop-color="#0A141F"/>
<stop offset="1" stop-color="#0C151F"/>
</linearGradient>
<linearGradient id="paint1_linear_233_198" x1="63" y1="25" x2="63" y2="47" gradientUnits="userSpaceOnUse">
<stop stop-color="#E9A989"/>
<stop offset="1" stop-color="#D7273D"/>
</linearGradient>
<linearGradient id="paint2_linear_233_198" x1="51" y1="21" x2="51" y2="53" gradientUnits="userSpaceOnUse">
<stop stop-color="#E9A688"/>
<stop offset="1" stop-color="#D72B40"/>
</linearGradient>
<linearGradient id="paint3_linear_233_198" x1="57" y1="31" x2="57" y2="53" gradientUnits="userSpaceOnUse">
<stop stop-color="#D82E41"/>
<stop offset="1" stop-color="#DB462B"/>
</linearGradient>
<linearGradient id="paint4_linear_233_198" x1="871" y1="880" x2="1050.5" y2="879.5" gradientUnits="userSpaceOnUse">
<stop stop-color="#D7263D"/>
<stop offset="1" stop-color="#EAAC8B"/>
</linearGradient>
<linearGradient id="paint5_linear_233_198" x1="841" y1="407" x2="769" y2="407" gradientUnits="userSpaceOnUse">
<stop stop-color="#E9AA8A"/>
<stop offset="1" stop-color="#D7283E"/>
</linearGradient>
<clipPath id="clip0_233_198">
<rect width="1920" height="1080" fill="white"/>
</clipPath>
<clipPath id="clip1_233_198">
<rect width="22" height="22" fill="white" transform="translate(1592 29)"/>
</clipPath>
</defs>
</svg>
